<?xml version="1.0" encoding="UTF-8"?> <svg xmlns="http://www.w3.org/2000/svg" width="70.209" height="53.688" viewBox="0 0 70.209 53.688"><path id="np_browser_2067321_000000" d="M53.688,28.284H4.13V61.323H55.752a2.065,2.065,0,0,1,0,4.13H2.065A2.065,2.065,0,0,1,0,63.388V13.831a2.065,2.065,0,0,1,2.065-2.065H55.752a2.065,2.065,0,0,1,2.065,2.065V31.383a2.065,2.065,0,1,1-4.13,0Zm0-4.13V15.9H4.13v8.258ZM65.4,53.6c.027.025.052.047.077.071L69.6,57.8a2.064,2.064,0,1,1-2.918,2.921l-4.13-4.13c-.025-.025-.049-.049-.071-.074A10.339,10.339,0,1,1,65.4,53.6Zm-8.612.5a6.2,6.2,0,1,0-6.2-6.2,6.2,6.2,0,0,0,6.2,6.2ZM9.292,22.089a2.064,2.064,0,1,1,2.065-2.062A2.064,2.064,0,0,1,9.292,22.089Zm7.229,0a2.064,2.064,0,1,1,2.062-2.062A2.064,2.064,0,0,1,16.521,22.089Zm7.227,0a2.064,2.064,0,1,1,2.065-2.062A2.064,2.064,0,0,1,23.748,22.089Z" transform="translate(0 -11.766)" fill="#00b3af"></path></svg> 