<?xml version="1.0" encoding="UTF-8"?> <svg xmlns="http://www.w3.org/2000/svg" width="66.668" height="66.668" viewBox="0 0 66.668 66.668"><path id="np_overlay_1611113_000000" d="M66.668,33.332V16.668h-50v50H33.336V83.336h50l0-50ZM20.832,62.5V20.832H62.5v12.5H33.332V62.5ZM62.5,58.332l-.09-.09L58.242,62.41l.09.09h-6.1L62.5,52.23Zm-25-16.664.09.09,4.168-4.168-.09-.09h6.1L37.5,47.77Zm0,11.961L53.629,37.5h5.957L37.5,59.586ZM37.5,62.5Zm25-22.055v5.926L46.371,62.5H40.445ZM79.168,79.168H37.5v-12.5H66.668V37.5h12.5Z" transform="translate(-16.668 -16.668)" fill="#00b3af"></path></svg> 