<svg xmlns="http://www.w3.org/2000/svg" width="26.937" height="21.881" viewBox="0 0 26.937 21.881"><g transform="translate(-0.001 -57.441)"><g transform="translate(0.001 57.441)"><path d="M26.938,60.03a11.035,11.035,0,0,1-3.173.87,5.549,5.549,0,0,0,2.429-3.055,11.14,11.14,0,0,1-3.511,1.342,5.53,5.53,0,0,0-9.416,5.038A15.688,15.688,0,0,1,1.878,58.451a5.532,5.532,0,0,0,1.71,7.376,5.526,5.526,0,0,1-2.5-.694V65.2a5.531,5.531,0,0,0,4.432,5.418,5.6,5.6,0,0,1-1.456.194,5.3,5.3,0,0,1-1.04-.1A5.529,5.529,0,0,0,8.182,74.55a11.087,11.087,0,0,1-6.863,2.362A11.744,11.744,0,0,1,0,76.836a15.62,15.62,0,0,0,8.47,2.486A15.613,15.613,0,0,0,24.193,63.6l-.019-.715A11.035,11.035,0,0,0,26.938,60.03Z" transform="translate(-0.001 -57.441)" fill="#f3c227"/></g></g></svg>