<svg xmlns="http://www.w3.org/2000/svg" width="24.03" height="29.576" viewBox="0 0 24.03 29.576"><g transform="translate(-48.004)"><g transform="translate(48.004)"><path d="M60.421,0C52.315,0,48,5.194,48,10.859c0,2.627,1.468,5.9,3.817,6.941.357.161.551.092.63-.238.07-.251.379-1.462.529-2.033a.523.523,0,0,0-.126-.514,6.736,6.736,0,0,1-1.4-4.087c0-3.95,3.141-7.786,8.485-7.786,4.621,0,7.855,3,7.855,7.3,0,4.853-2.568,8.21-5.9,8.21A2.643,2.643,0,0,1,59.1,15.4c.527-2.135,1.56-4.431,1.56-5.971A2.293,2.293,0,0,0,58.291,6.91c-1.88,0-3.405,1.862-3.405,4.361a6.217,6.217,0,0,0,.562,2.66s-1.86,7.513-2.205,8.916c-.584,2.375.079,6.222.137,6.553a.2.2,0,0,0,.355.091A23.29,23.29,0,0,0,56.8,23.725c.229-.845,1.17-4.27,1.17-4.27a5.11,5.11,0,0,0,4.311,2.056c5.664,0,9.757-4.978,9.757-11.156C72.013,4.431,66.944,0,60.421,0Z" transform="translate(-48.004)" fill="#f3c227"/></g></g></svg>