<svg xmlns="http://www.w3.org/2000/svg" width="23.979" height="22.914" viewBox="0 0 23.979 22.914"><g transform="translate(0 -9.558)"><path d="M23.979,23.606v8.865H18.84V24.2c0-2.078-.743-3.5-2.6-3.5a2.812,2.812,0,0,0-2.637,1.88,3.517,3.517,0,0,0-.17,1.253v8.634H8.287s.069-14.009,0-15.461h5.141V19.2c-.01.016-.024.034-.034.05h.034V19.2a5.1,5.1,0,0,1,4.633-2.555C21.444,16.648,23.979,18.857,23.979,23.606ZM2.909,9.558A2.679,2.679,0,1,0,2.841,14.9h.034a2.68,2.68,0,1,0,.034-5.343ZM.305,32.472H5.445V17.011H.305Z" fill="#f3c227"/></g></svg>