<?xml version="1.0" encoding="utf-8"?>
<!-- Generator: Adobe Illustrator 24.0.3, SVG Export Plug-In . SVG Version: 6.00 Build 0)  -->
<svg version="1.1" id="Layer_1" xmlns="http://www.w3.org/2000/svg" xmlns:xlink="http://www.w3.org/1999/xlink" x="0px" y="0px"
	 viewBox="0 0 15.3 8" style="enable-background:new 0 0 15.3 8;" xml:space="preserve">
<style type="text/css">
	.st0{fill:#FFFFFF;}
</style>
<g>
	<path class="st0" d="M13.9,0L13.9,0L8,5.9l0,0C7.9,6,7.8,6,7.6,6C7.5,6,7.4,6,7.3,5.9l0,0L1.4,0L0,1.4l5.9,5.9l0,0
		C6.4,7.8,7,8,7.6,8c0,0,0,0,0,0c0,0,0,0,0,0c0.6,0,1.3-0.2,1.7-0.7l0,0l5.9-5.9L13.9,0"/>
</g>
</svg>
