<svg xmlns="http://www.w3.org/2000/svg" width="28.061" height="28.061" viewBox="0 0 28.061 28.061"><path d="M19.292,0H8.769A8.77,8.77,0,0,0,0,8.769V19.292a8.77,8.77,0,0,0,8.769,8.769H19.292a8.77,8.77,0,0,0,8.769-8.769V8.769A8.77,8.77,0,0,0,19.292,0ZM25.43,19.292a6.145,6.145,0,0,1-6.138,6.138H8.769a6.145,6.145,0,0,1-6.138-6.138V8.769A6.145,6.145,0,0,1,8.769,2.631H19.292A6.145,6.145,0,0,1,25.43,8.769Z" fill="#f3c227"/><g transform="translate(7.015 7.015)"><path d="M135.015,128a7.015,7.015,0,1,0,7.015,7.015A7.015,7.015,0,0,0,135.015,128Zm0,11.4a4.384,4.384,0,1,1,4.384-4.384A4.391,4.391,0,0,1,135.015,139.4Z" transform="translate(-128 -128)" fill="#f3c227"/></g><g transform="translate(20.637 5.554)"><circle cx="0.935" cy="0.935" r="0.935" fill="#f3c227"/></g></svg>