<?xml version="1.0" encoding="utf-8"?>
<!-- Generator: Adobe Illustrator 20.1.0, SVG Export Plug-In . SVG Version: 6.00 Build 0)  -->
<svg version="1.1" id="Layer_1" xmlns="http://www.w3.org/2000/svg" xmlns:xlink="http://www.w3.org/1999/xlink" x="0px" y="0px"
	 viewBox="0 0 113.4 113.4" style="enable-background:new 0 0 113.4 113.4;" xml:space="preserve">
<style type="text/css">
	.st0{fill:#F58462;}
</style>
<g>
	<path class="st0" d="M4,109.8L4,109.8c-4-4-4-10.5,0-14.4L95,4.4c4-4,10.5-4,14.4,0l0,0c4,4,4,10.5,0,14.4l-90.9,90.9
		C14.5,113.8,8,113.8,4,109.8z"/>
	<path class="st0" d="M4,4.4L4,4.4c4-4,10.5-4,14.4,0l90.9,90.9c4,4,4,10.5,0,14.4l0,0c-4,4-10.5,4-14.4,0L4,18.9
		C0.1,14.9,0.1,8.4,4,4.4z"/>
</g>
</svg>
