<?xml version="1.0" encoding="utf-8"?>
<!-- Generator: Adobe Illustrator 20.1.0, SVG Export Plug-In . SVG Version: 6.00 Build 0)  -->
<svg version="1.1" id="Layer_1" xmlns="http://www.w3.org/2000/svg" xmlns:xlink="http://www.w3.org/1999/xlink" x="0px" y="0px"
	 viewBox="0 0 113.4 113.4" style="enable-background:new 0 0 113.4 113.4;" xml:space="preserve">
<style type="text/css">
	.st0{fill:#95B2DD;}
</style>
<g>
	<g>
		<path class="st0" d="M65.8,1.8c7.4,0,11.1,5,11.1,10.8c0,7.2-6.4,13.9-14.8,13.9c-7,0-11.1-4.1-10.9-11
			C51.2,9.7,56.1,1.8,65.8,1.8z M43.1,112.1c-5.8,0-10.1-3.6-6-19.4l6.7-28.1c1.2-4.5,1.4-6.3,0-6.3c-1.8,0-9.3,3.1-13.8,6.2
			L27,59.6c14.2-12.1,30.5-19.1,37.5-19.1c5.8,0,6.8,7,3.9,17.8l-7.7,29.5c-1.4,5.2-0.8,7,0.6,7c1.8,0,7.5-2.2,13.1-6.7l3.3,4.5
			C64,106.7,48.9,112.1,43.1,112.1z"/>
	</g>
</g>
</svg>
