<?xml version="1.0" encoding="UTF-8"?> <svg xmlns="http://www.w3.org/2000/svg" id="Logo" viewBox="0 0 618.97 121.68"><defs><style>.cls-1{fill:#e0c289;}.cls-2{fill:#7f7979;}</style></defs><title>damali-dark-logo</title><g id="Logo-2" data-name="Logo"><path class="cls-1" d="M79.3,38.46q8.41,7.62,8.41,21.19T79.55,81.14Q71.39,89,54.57,89H35.26V30.84h20Q70.89,30.84,79.3,38.46ZM77.81,59.9q0-20-22.9-20H45.08V79.8H56q10.57,0,16.2-5T77.81,59.9Z"></path><path class="cls-2" d="M193,38q8.48,7.69,8.48,21.38T193.26,81q-8.23,8-25.2,8H148.57V30.28h20.16Q184.52,30.28,193,38ZM191.49,59.6q0-20.16-23.1-20.16h-9.91V79.67h11q10.67,0,16.34-5.08T191.49,59.6Z"></path><path class="cls-2" d="M248.7,89h-8.57V83q-5.54,6.64-14.87,6.64a17,17,0,0,1-11.55-3.95,13.22,13.22,0,0,1-4.58-10.54q0-6.59,4.87-9.87T227.19,62h12.18V60.35q0-8.9-9.91-8.9-6.22,0-12.94,4.54l-4.2-5.88a28.93,28.93,0,0,1,18.48-6.47q7.89,0,12.89,4t5,12.56Zm-9.41-16.63V68.59H228.7q-10.16,0-10.16,6.38a5.68,5.68,0,0,0,2.52,5,12.31,12.31,0,0,0,7,1.72,12.73,12.73,0,0,0,7.85-2.52A8.07,8.07,0,0,0,239.29,72.37Z"></path><path class="cls-2" d="M270.79,64.81V89h-9.41V44.31h9.41v8.15A14.92,14.92,0,0,1,276.88,46a17.27,17.27,0,0,1,8.78-2.35q10.58,0,14.36,8.74,6.63-8.74,16.55-8.74,7.56,0,12.22,4.62t4.66,13.36V89H324V64.47q0-12.35-10.25-12.35a12.43,12.43,0,0,0-8.36,3.07q-3.57,3.07-3.74,8.95V89h-9.41V64.47q0-6.38-2.27-9.37t-7.14-3a12.31,12.31,0,0,0-8.48,3.23Q270.79,58.59,270.79,64.81Z"></path><path class="cls-2" d="M382.34,89h-8.57V83q-5.54,6.64-14.87,6.64a17,17,0,0,1-11.55-3.95,13.22,13.22,0,0,1-4.58-10.54q0-6.59,4.87-9.87T360.83,62H373V60.35q0-8.9-9.91-8.9-6.22,0-12.94,4.54L346,50.11a28.93,28.93,0,0,1,18.48-6.47q7.89,0,12.89,4t5,12.56Zm-9.41-16.63V68.59H362.35q-10.16,0-10.16,6.38a5.68,5.68,0,0,0,2.52,5,12.31,12.31,0,0,0,7,1.72,12.73,12.73,0,0,0,7.85-2.52A8.07,8.07,0,0,0,372.93,72.37Z"></path><path class="cls-2" d="M404.43,89H395V26.67h9.41Z"></path><path class="cls-2" d="M418.2,35.41a5.88,5.88,0,1,1,4.2,1.76A5.74,5.74,0,0,1,418.2,35.41ZM427,89h-9.41V44.31H427Z"></path><path class="cls-2" d="M457.43,89V30.28h9.91V79.59h26.8V89Z"></path><path class="cls-2" d="M539.41,89h-8.57V83Q525.3,89.67,516,89.67a17,17,0,0,1-11.55-3.95,13.21,13.21,0,0,1-4.58-10.54q0-6.59,4.87-9.87T517.91,62h12.18V60.35q0-8.9-9.91-8.9-6.22,0-12.94,4.54L503,50.11a28.93,28.93,0,0,1,18.48-6.47q7.89,0,12.89,4t5,12.56ZM530,72.37V68.59H519.42q-10.16,0-10.16,6.38a5.68,5.68,0,0,0,2.52,5,12.31,12.31,0,0,0,7,1.72,12.73,12.73,0,0,0,7.85-2.52A8.06,8.06,0,0,0,530,72.37Z"></path><path class="cls-2" d="M571.59,89H560.84L545.39,44.31h9.74l11.09,33.77,11.09-33.77H587l11.09,33.77,11.09-33.77H619L603.51,89H592.76L582.18,58.42Z"></path><path class="cls-1" d="M121.68,121.68H0V0H121.68ZM8.27,113.41H113.41V8.27H8.27Z"></path></g></svg> 