<?xml version="1.0" encoding="UTF-8"?> <!-- Generator: Adobe Illustrator 24.3.0, SVG Export Plug-In . SVG Version: 6.00 Build 0) --> <svg xmlns="http://www.w3.org/2000/svg" xmlns:xlink="http://www.w3.org/1999/xlink" version="1.1" id="Layer_1" x="0px" y="0px" viewBox="0 0 1223.3 427.5" style="enable-background:new 0 0 1223.3 427.5;" xml:space="preserve"> <style type="text/css"> .st0{fill:#DB9E0F;} </style> <path class="st0" d="M133.7,219.1h17v43.8c0,17-7.5,23.1-19.3,23.1s-19.4-6.1-19.4-23.1V134.7c0-17,7.5-23.4,19.3-23.4 s19.3,6.4,19.3,23.4v25.4H186v-23.1c0-38-19-59.7-55.6-59.7s-55.6,21.7-55.6,59.7v123.5c0,38,19,59.7,55.6,59.7s55.6-21.7,55.6-59.7 v-75.3h-52.3V219.1z"></path> <path d="M1190.1,258.5h27.8V86.1h-24.2v103.2h-0.5l-27.3-103.2h-34v172.5h24.4V133.6h0.5L1190.1,258.5z M1058.3,116.6h0.5l12.8,87.2 h-26.1L1058.3,116.6z M1079.7,86.1H1040l-27.6,172.5h24.9l4.7-31.3h33.3l4.7,31.3h27.3L1079.7,86.1z M911.4,86.1h-37.7v172.5h23.7 v-122h0.5l19.7,122h25.6l18.2-123.7h0.5v123.7h25.6V86.1h-37.7l-18.2,122.5h-0.5L911.4,86.1z M766.1,127.5c0,19.7,7.1,34,29.8,54 c17.7,15.5,23.1,24.8,23.1,37.4c0,12.3-5.4,16.8-14,16.8s-14-4.4-14-16.8v-12.3h-25.7v10.6c0,27.6,13.8,43.4,40.4,43.4 s40.4-15.8,40.4-43.4c0-19.7-7.2-34-29.8-53.9c-17.7-15.5-23.2-24.9-23.2-37.5c0-12.3,4.9-17,13.5-17s13.5,4.7,13.5,17v7.2h25.6 v-5.4c0-27.6-13.5-43.4-39.9-43.4S766.1,99.9,766.1,127.5z M661.6,127.5c0,19.7,7.1,34,29.8,54c17.7,15.5,23.2,24.9,23.2,37.4 c0,12.3-5.4,16.8-14,16.8s-14-4.4-14-16.8v-12.4h-25.7v10.6c0,27.6,13.8,43.4,40.4,43.4s40.4-15.8,40.4-43.4 c0-19.7-7.1-34-29.8-53.9c-17.7-15.5-23.2-24.9-23.2-37.5c0-12.3,4.9-17,13.5-17s13.5,4.7,13.5,17v7.2h25.6v-5.4 c0-27.6-13.5-43.4-39.9-43.4S661.6,99.9,661.6,127.5L661.6,127.5z M552.9,217.1c0,27.6,14.5,43.4,41.2,43.4s41.2-15.8,41.2-43.4 v-89.7c0-27.6-14.5-43.4-41.2-43.4s-41.2,15.8-41.2,43.4V217.1z M580,125.7c0-12.3,5.4-17,14-17s14,4.7,14,17v93.1 c0,12.3-5.4,17-14,17s-14-4.7-14-17V125.7z M483.9,110.7c9.6,0,13.8,5.4,13.8,17.7v17c0,13.8-6.2,18.2-16.3,18.2h-10.5v-53 L483.9,110.7z M528,258.6c-2.7-6.4-3-12.6-3-21V211c0-18-4.4-30.8-18-36.5V174c12.1-5.7,17.7-17,17.7-34.7v-13.5 c0-26.6-12.1-39.7-40.2-39.7h-40.9v172.5h27.1v-70.2h9.4c12.3,0,17.7,5.9,17.7,21.9v27.1c0,14,1,16.8,2.5,21.2L528,258.6z M376,187.1h12.3v31.8c0,12.3-5.4,16.8-14,16.8s-14-4.4-14-16.8v-93.1c0-12.3,5.4-17,14-17s14,4.7,14,17v18.5H414v-16.8 c0-27.6-13.8-43.4-40.4-43.4s-40.4,15.8-40.4,43.4v89.7c0,27.6,13.8,43.4,40.4,43.4s40.4-15.8,40.4-43.4v-54.7h-38V187.1z"></path> <path class="st0" d="M1207.6,304.9l-5.1-20.8h-10.2l-5,20.8l-5.1-20.8H1171l10.6,31.6h10.7l4.9-18.9l4.7,18.9h10.7l10.7-31.6h-10.7 L1207.6,304.9z M1144.5,294.6l3.2,9.3h-6.6L1144.5,294.6z M1163.1,315.8l-12.9-31.6h-10.7l-13.3,31.6h10.7l1.6-4.5h11.9l1.6,4.5 H1163.1z M1091.2,315.8h23.6v-8.7h-13.2v-22.9h-10.5L1091.2,315.8z M1028.7,292.4h9v23.4h10.5v-23.4h9v-8.3h-28.5V292.4z M1002.7,294.6l3.3,9.3h-6.6L1002.7,294.6z M1021.2,315.8l-12.9-31.6h-10.7l-13.3,31.6H995l1.6-4.5h11.9l1.6,4.5H1021.2z M949.1,295.2l3.8-8c-2-1.2-4.1-2.1-6.4-2.8c-2.4-0.7-4.9-1-7.4-1c-2.4,0-4.9,0.4-7.1,1.3c-1.9,0.7-3.5,2-4.7,3.6 c-1.1,1.6-1.7,3.6-1.7,5.5c-0.1,1.9,0.5,3.7,1.6,5.2c1,1.3,2.4,2.2,3.8,2.9c1.8,0.7,3.7,1.3,5.6,1.8c1.4,0.3,2.7,0.7,4,1.3 c0.7,0.2,1.3,0.9,1.3,1.7c0,0.5-0.2,1-0.7,1.3c-0.6,0.3-1.2,0.5-1.8,0.4c-2.1-0.1-4.1-0.6-6-1.5c-2.2-0.8-4.2-2-6-3.5l-3.9,7.9 c2.2,1.7,4.7,2.9,7.4,3.8c2.7,0.9,5.6,1.4,8.5,1.4c2.3,0,4.6-0.4,6.7-1.1c1.9-0.7,3.6-1.9,4.8-3.5c1.2-1.7,1.9-3.7,1.8-5.8 c0.1-1.9-0.5-3.8-1.7-5.4c-1-1.3-2.4-2.3-3.9-3c-1.8-0.8-3.7-1.4-5.6-1.9c-1.3-0.3-2.7-0.8-3.9-1.3c-0.7-0.2-1.2-0.9-1.2-1.7 c0-0.9,0.6-1.4,1.9-1.4c1.8,0.1,3.5,0.5,5.1,1.1C945.4,293.3,947.3,294.1,949.1,295.2L949.1,295.2z M901.9,284.2l-6.1,12.2 l-6.4-12.2H879l11.5,22v9.6H901V306l11.3-21.8L901.9,284.2z M839.3,315.8h27.2v-7.9h-16.7V304h14.8v-8h-14.8v-3.9h16.3v-7.9h-26.8 L839.3,315.8z M814,300.4l-12.5-16.2h-8.8v31.6h9.5v-16.1l12.5,16.1h8.8v-31.6h-9.5L814,300.4z M759.3,292.1h4.8 c1-0.1,1.9,0.3,2.6,1c0.7,0.8,1,1.7,0.9,2.7c0.1,1-0.3,2-0.9,2.8c-0.7,0.7-1.7,1.1-2.6,1h-4.8L759.3,292.1z M778.8,315.8l-6.2-10.3 c1.6-1,2.9-2.3,3.7-4c0.9-1.9,1.3-3.9,1.3-6c0-3.6-1.2-6.4-3.5-8.4s-5.7-3-10-3h-15.3v31.6h10.5v-8.2h3.9l3.8,8.2L778.8,315.8z M717.4,292.2c1.2,0,2.3,0.3,3.3,1c1,0.7,1.8,1.7,2.3,2.8c0.6,1.3,0.9,2.6,0.9,4c0,1.4-0.3,2.7-0.9,4c-0.5,1.1-1.3,2.1-2.3,2.8 c-1,0.7-2.1,1-3.3,1c-1.2,0-2.4-0.3-3.4-1c-1.1-0.7-1.9-1.7-2.5-2.8c-0.6-1.2-1-2.6-0.9-4c0-1.4,0.3-2.8,0.9-4 c0.6-1.1,1.4-2.1,2.5-2.8C715,292.6,716.2,292.2,717.4,292.2L717.4,292.2z M717.2,283.5c-3.1,0-6.2,0.7-8.9,2.1 c-2.6,1.3-4.7,3.4-6.2,5.8c-1.5,2.6-2.3,5.5-2.2,8.5c0,3,0.7,5.9,2.2,8.5c1.5,2.5,3.6,4.6,6.2,5.9c5.6,2.9,12.3,2.9,17.9,0 c2.6-1.4,4.7-3.4,6.2-5.9c1.5-2.6,2.3-5.5,2.2-8.5c0-3-0.7-5.9-2.2-8.4c-1.5-2.5-3.6-4.5-6.2-5.9 C723.4,284.2,720.3,283.5,717.2,283.5L717.2,283.5z M660.6,292.4h9v23.4H680v-23.3h9v-8.3h-28.4L660.6,292.4z M620.4,292.4h9v23.4 h10.5v-23.3h9v-8.3h-28.4L620.4,292.4z M594.4,294.6l3.3,9.3H591L594.4,294.6z M613,315.8l-12.9-31.6h-10.8L576,315.8h10.7l1.6-4.5 h11.9l1.6,4.5H613z"></path> <path class="st0" d="M255.5,252h-9.6c0,11-1.7,21.9-4.9,32.4c-2.8,9.1-6.4,17.9-11,26.2c-8.1,14.6-18,28.1-29.4,40.2 c-14.8,15.8-31.3,30-49,42.4c-7,5-13,8.8-17.2,11.3c-2.1,1.3-3.7,2.2-4.9,2.9l-1.2,0.7l-0.3,0.2h-0.1l0,0l3.6,6.5l-3.6-6.5l0,0 l3.6,6.5l-3.6-6.5l4.6,8.4l4.4-8.5c-0.2-0.1-7.9-4-19.1-11.4c-10.4-6.8-20.4-14.2-29.9-22.1c-8.7-7.3-17-15.1-24.7-23.4 c-12-13.1-23.1-28.1-31.1-44.7c-4.1-8.3-7.2-17.1-9.5-26.1c-2.3-9.3-3.5-18.8-3.5-28.4V22.3H9.6l0.5,9.6c0.1,0,20-1,45.4-3.1 c12.7-1,26.8-2.4,40.5-3.9s27-3.4,38.3-5.6l-1.8-9.4l-2.3,9.3c5.6,1.4,11.7,2.6,18.1,3.6c11.2,1.9,23.5,3.4,35.6,4.6 c18.1,1.8,35.9,2.9,49.2,3.6s22,0.9,22.1,0.9l0.3-9.6h-9.6V252H265V13l-9.3-0.3l0,0c-0.2,0-20.3-0.6-45.5-2.4 c-12.6-0.9-26.4-2.1-39.7-3.8c-6.6-0.8-13.1-1.7-19.1-2.7s-11.7-2.2-16.6-3.4l-2-0.5l-2,0.4c-10.5,2-23.5,3.8-36.9,5.4 C73.7,8.1,52.4,9.9,36.3,11c-8.1,0.6-14.9,1-19.7,1.3L11,12.6l-1.5,0.1H9.2H9.1L0,13.2V252c0,13.2,1.9,26.4,5.7,39.1 c3.1,10.5,7.3,20.7,12.6,30.4c8.8,16.1,19.6,30.9,32.2,44.2c15.7,16.5,33.2,31.3,52.1,44c8.2,5.7,16.8,10.8,25.6,15.5l4.5,2.3 l4.4-2.4c0.2-0.1,8.1-4.5,20-12.5c11-7.4,21.5-15.5,31.6-24.1c9.4-8,18.2-16.5,26.6-25.5c13.1-14.3,25.5-30.8,34.6-49.4 c4.7-9.4,8.4-19.2,11-29.4c2.7-10.5,4.1-21.3,4.1-32.2L255.5,252z"></path> </svg> 