<?xml version="1.0" encoding="UTF-8"?> <!-- Generator: Adobe Illustrator 24.3.0, SVG Export Plug-In . SVG Version: 6.00 Build 0) --> <svg xmlns="http://www.w3.org/2000/svg" xmlns:xlink="http://www.w3.org/1999/xlink" version="1.1" id="Layer_1" x="0px" y="0px" viewBox="0 0 154.6 101.1" style="enable-background:new 0 0 154.6 101.1;" xml:space="preserve"> <style type="text/css"> .st0{fill:#062136;} .st1{fill:#355267;} </style> <path class="st0" d="M135.5,61.9h15.6v-2h-13.4v-8.5h11.6v-2h-11.6v-8.1h13v-2h-15.2L135.5,61.9L135.5,61.9z M118.6,58.4l-14.1-19.2 h-2.4v22.7h2.2V42.7l14.1,19.2h2.4V39.2h-2.2L118.6,58.4z M85.3,61.9h2.2V39.2h-2.2V61.9z M62.4,61.9h2.3L74,39.2h-2.4l-8,20.2 l-8.1-20.2h-2.4L62.4,61.9z M27.8,61.9h15.6v-2H30.1v-8.5h11.6v-2H30.1v-8.1h13v-2H27.8V61.9z M3.7,61.9h12.3v-2h-10V39.2H3.7 L3.7,61.9z"></path> <path class="st0" d="M148.4,97.4l-14.1-19.2h-2.4v22.7h2.2V81.7l14.1,19.2h2.4V78.2h-2.2L148.4,97.4L148.4,97.4z M107.6,80.5 l5.4,12.3h-10.9L107.6,80.5z M119.1,100.9l-10.2-22.7h-2.4l-10.2,22.7h2.4l2.7-6h12.6l2.7,6L119.1,100.9z M73.6,100.9h12.3v-2h-10 V78.2h-2.2L73.6,100.9z M47.8,80c1.7,0,3.3,0.4,4.8,1.3c1.4,0.8,2.6,2,3.5,3.4c0.9,1.4,1.3,3.1,1.3,4.8c0,1.7-0.4,3.4-1.3,4.8 c-0.8,1.4-2,2.6-3.5,3.5c-1.4,0.8-3.1,1.3-4.8,1.3c-1.7,0-3.3-0.4-4.8-1.3c-1.5-0.8-2.7-2-3.5-3.5c-0.9-1.5-1.3-3.1-1.3-4.8 c0-1.7,0.4-3.3,1.3-4.8c0.8-1.4,2.1-2.6,3.5-3.4C44.4,80.4,46.1,80,47.8,80z M47.7,78c-2.1,0-4.1,0.5-6,1.5c-1.8,1-3.3,2.4-4.3,4.2 c-2.1,3.6-2.1,8,0,11.6c1,1.8,2.5,3.2,4.3,4.2c1.8,1,3.9,1.6,6,1.6c4.2,0,8.1-2.2,10.3-5.8c1.1-1.8,1.6-3.8,1.6-5.8 c0-2-0.5-4-1.6-5.8C55.8,80.1,51.9,78,47.7,78z M12.9,98.9h-7V80.2h6.9c1.7,0,3.3,0.4,4.8,1.2c1.4,0.8,2.6,2,3.4,3.4 c2.6,4.4,1.2,10.1-3.2,12.8c0,0-0.1,0.1-0.1,0.1C16.2,98.5,14.5,98.9,12.9,98.9z M12.8,78.2H3.7v22.7h9.1c2.1,0,4.2-0.5,6-1.5 c1.8-1,3.2-2.4,4.2-4.1c1-1.7,1.6-3.7,1.5-5.7c0-2-0.5-4-1.5-5.8c-1-1.7-2.5-3.2-4.2-4.1C17,78.7,14.9,78.1,12.8,78.2L12.8,78.2z"></path> <path class="st1" d="M0,32.6h154.6v-1.8H0"></path> <path class="st1" d="M0,70.9h154.6V69H0"></path> <g transform="translate(3.691)"> <path class="st0" d="M85.3,3.3C86.7,2.4,88.4,2,90.1,2c1.3,0,2.6,0.2,3.8,0.7c1.2,0.4,2.3,1.1,3.2,2l1.3-1.6 c-1.1-1-2.4-1.8-3.8-2.3c-1.4-0.5-3-0.8-4.5-0.8c-2.1,0-4.2,0.5-6,1.5c-1.8,1-3.3,2.4-4.3,4.2c-2.1,3.6-2.1,8,0,11.6 c1,1.8,2.5,3.2,4.3,4.2c1.8,1,3.8,1.6,5.9,1.6c1.5,0,3-0.3,4.5-0.8c1.4-0.5,2.7-1.2,3.8-2.2v-6.8l0,0v-2.1h-6.7v2.1h4.7V19 c-0.9,0.6-1.9,1.1-3,1.5c-1,0.4-2.1,0.5-3.2,0.5c-3.4,0-6.7-1.8-8.4-4.8c-0.9-1.5-1.3-3.1-1.3-4.8c0-1.7,0.4-3.3,1.3-4.8 C82.6,5.3,83.8,4.1,85.3,3.3z"></path> <path class="st0" d="M46.1,1.5c-3.7-2.1-8.2-2.1-11.9,0c-1.8,1-3.3,2.4-4.3,4.2c-2.1,3.6-2.1,8,0,11.6c1,1.8,2.5,3.2,4.3,4.2 c1.8,1,3.9,1.6,6,1.6c4.2,0,8.1-2.2,10.3-5.8c1.1-1.8,1.6-3.8,1.6-5.8c0-2-0.5-4-1.6-5.8C49.3,4,47.8,2.5,46.1,1.5z M48.4,16.3 c-0.8,1.4-2,2.6-3.5,3.5c-1.4,0.8-3.1,1.3-4.8,1.3c-1.7,0-3.3-0.4-4.8-1.3c-1.5-0.8-2.7-2-3.5-3.5c-0.9-1.5-1.3-3.1-1.3-4.8 c0-1.7,0.4-3.3,1.3-4.8C33.6,3.8,36.7,2,40.1,2c1.7,0,3.3,0.4,4.8,1.3c1.4,0.8,2.6,2,3.5,3.4c0.9,1.4,1.3,3.1,1.3,4.8 C49.7,13.2,49.2,14.9,48.4,16.3L48.4,16.3z"></path> <path class="st0" d="M11.7,17.2L2.8,0.2H0v22.8h2.1V3.3L11,20.5h1.2l8.9-17.2l0,19.6h2.1V0.2h-2.8L11.7,17.2z"></path> <path class="st0" d="M144.5,0.2v19.2L130.4,0.2h-2.4v22.7h2.2V3.7l14.1,19.2h2.4V0.2H144.5z"></path> <path class="st0" d="M72.9,12.4c0.9-1.4,1.4-3,1.4-4.7c0.1-2.1-0.7-4.2-2.3-5.6c-1.9-1.4-4.2-2.1-6.6-2h-8.5v22.7h2.2v-7.4h6.2 c0.4,0,0.9,0,1.6-0.1l4.9,7.4h2.6L69,15.1C70.6,14.7,72,13.7,72.9,12.4z M65.4,13.6h-6.2V2.2h6.2c1.8-0.1,3.5,0.4,5,1.4 c1.2,1,1.9,2.6,1.8,4.1c0.1,1.6-0.5,3.2-1.8,4.3C68.9,13.1,67.2,13.7,65.4,13.6L65.4,13.6z"></path> <path class="st0" d="M111.8,0.2l-10.2,22.7h2.4l2.7-6h12.6l2.7,6h2.5L114.1,0.2H111.8z M107.5,14.9l5.4-12.3l5.4,12.3L107.5,14.9z"></path> </g> </svg> 