<?xml version="1.0" encoding="UTF-8"?> <svg xmlns="http://www.w3.org/2000/svg" xmlns:xlink="http://www.w3.org/1999/xlink" width="1779.715" height="1220.856" viewBox="0 0 1779.715 1220.856"><defs><linearGradient id="a" y1="0.5" x2="1" y2="0.5" gradientUnits="objectBoundingBox"><stop offset="0" stop-color="#d9dad9"></stop><stop offset="0.6" stop-color="#f2f3f2"></stop><stop offset="1" stop-color="#fff"></stop></linearGradient><radialGradient id="b" cx="0.5" cy="0.5" r="1" gradientTransform="translate(0.269 216.171) scale(0.445 0.503)" gradientUnits="objectBoundingBox"><stop offset="0" stop-color="#9c9ea2"></stop><stop offset="0.32" stop-color="#bfc1c3"></stop><stop offset="0.772" stop-color="#ededee"></stop><stop offset="1" stop-color="#fff"></stop></radialGradient><linearGradient id="d" y1="0.5" x2="1" y2="0.5" gradientUnits="objectBoundingBox"><stop offset="0" stop-color="#fffdfd"></stop><stop offset="0.076" stop-color="#f8f7f6"></stop><stop offset="0.377" stop-color="#e5e5e4"></stop><stop offset="0.683" stop-color="#d9dad8"></stop><stop offset="1" stop-color="#d6d7d5"></stop></linearGradient><linearGradient id="e" x1="-0.01" y1="0.5" x2="1.001" y2="0.5" gradientUnits="objectBoundingBox"><stop offset="0" stop-color="#fffdfd"></stop><stop offset="0.327" stop-color="#fbf9f9"></stop><stop offset="0.622" stop-color="#f0efee"></stop><stop offset="0.903" stop-color="#dededc"></stop><stop offset="1" stop-color="#d6d7d5"></stop></linearGradient><linearGradient id="f" y1="0.5" x2="1" y2="0.5" gradientUnits="objectBoundingBox"><stop offset="0" stop-color="#bdbfbf"></stop><stop offset="0.431" stop-color="#cecfce"></stop><stop offset="1" stop-color="#e1e1df"></stop></linearGradient><radialGradient id="g" cx="0.5" cy="0.5" r="0.924" gradientTransform="translate(0.296 193.872) scale(0.499 0.488)" gradientUnits="objectBoundingBox"><stop offset="0" stop-color="#9c9ea2"></stop><stop offset="0.102" stop-color="#a8aaae"></stop><stop offset="0.509" stop-color="#d7d8d9"></stop><stop offset="0.821" stop-color="#f4f4f4"></stop><stop offset="1" stop-color="#fff"></stop></radialGradient><linearGradient id="j" y1="0.5" x2="1" y2="0.5" gradientUnits="objectBoundingBox"><stop offset="0" stop-color="#fffdfd"></stop><stop offset="0.146" stop-color="#eeedec"></stop><stop offset="0.34" stop-color="#e0e0df"></stop><stop offset="0.579" stop-color="#d8d9d7"></stop><stop offset="1" stop-color="#d6d7d5"></stop></linearGradient><linearGradient id="k" x1="-0.013" y1="0.5" x2="1.003" y2="0.5" xlink:href="#e"></linearGradient><linearGradient id="l" y1="0.5" x2="1" y2="0.5" gradientUnits="objectBoundingBox"><stop offset="0" stop-color="#e1e1df"></stop><stop offset="0.864" stop-color="#b7baba"></stop><stop offset="1" stop-color="#b1b4b4"></stop></linearGradient><radialGradient id="m" cx="0.5" cy="0.5" r="0.99" gradientTransform="matrix(0.476, -0.009, 0.002, 0.49, -0.601, 235.546)" gradientUnits="objectBoundingBox"><stop offset="0" stop-color="#9c9ea2"></stop><stop offset="0.667" stop-color="#e2e3e4"></stop><stop offset="0.979" stop-color="#fff"></stop></radialGradient><linearGradient id="o" x1="-0.01" y1="0.498" x2="0.969" y2="0.498" gradientUnits="objectBoundingBox"><stop offset="0" stop-color="#fffdfd"></stop><stop offset="0.092" stop-color="#f7f5f5"></stop><stop offset="0.378" stop-color="#e4e4e3"></stop><stop offset="0.676" stop-color="#d9dad8"></stop><stop offset="1" stop-color="#d6d7d5"></stop></linearGradient><linearGradient id="p" x1="0.012" y1="0.503" x2="0.991" y2="0.503" xlink:href="#f"></linearGradient><radialGradient id="q" cx="0.5" cy="0.5" r="1.124" gradientTransform="translate(0.327 704.573) scale(0.418 0.41)" gradientUnits="objectBoundingBox"><stop offset="0" stop-color="#9c9ea2"></stop><stop offset="0.326" stop-color="#c2c4c6"></stop><stop offset="0.734" stop-color="#eeeeef"></stop><stop offset="0.942" stop-color="#fff"></stop></radialGradient><linearGradient id="s" y1="0.5" x2="1" y2="0.5" gradientUnits="objectBoundingBox"><stop offset="0" stop-color="#fffdfd"></stop><stop offset="0.085" stop-color="#f8f6f6"></stop><stop offset="0.378" stop-color="#e5e4e3"></stop><stop offset="0.679" stop-color="#d9dad8"></stop><stop offset="1" stop-color="#d6d7d5"></stop></linearGradient><linearGradient id="u" x1="0" y1="0.5" x2="1" y2="0.5" xlink:href="#l"></linearGradient><radialGradient id="y" cx="0.5" cy="0.5" r="1.104" gradientTransform="translate(0.443 623.088) scale(0.384 0.44)" gradientUnits="objectBoundingBox"><stop offset="0" stop-color="#9c9ea2"></stop><stop offset="0.369" stop-color="#c8c9cb"></stop><stop offset="0.746" stop-color="#eff0f0"></stop><stop offset="0.942" stop-color="#fff"></stop></radialGradient><linearGradient id="z" x1="0" y1="0.5" x2="1" y2="0.5" xlink:href="#s"></linearGradient><linearGradient id="aa" x1="0" y1="0.5" x2="1" y2="0.5" xlink:href="#f"></linearGradient><linearGradient id="ac" x1="-0.864" y1="-37.453" x2="-0.822" y2="-37.533" gradientUnits="objectBoundingBox"><stop offset="0" stop-color="#fff"></stop><stop offset="1" stop-color="#e1e2e0"></stop></linearGradient><clipPath id="ad"><path d="M259.007,843.111a7.153,7.153,0,0,1,5.876-6.787c-16.425-15.353-32.357-31.232-32.357-31.232L307.253,743.8s50.3,43.628,52.835,65.955c1.815,15.982-44.722,57.885-60.806,54.807-3-.573-11.734-7.693-21.94-16.818a10.77,10.77,0,0,1-7.52,4.5C265.41,853.059,258.466,849.965,259.007,843.111Z" transform="translate(-232.526 -743.797)" fill="none"></path></clipPath></defs><g transform="translate(3109.791 -32.296)"><g transform="translate(-3109.791 32.296)"><g transform="translate(0 134.099)"><g transform="translate(1530.675 112.273)"><g transform="translate(87.883)"><rect width="2.593" height="365.617" fill="url(#a)"></rect></g><g transform="translate(4.761 354.262) rotate(10)"><path d="M14.415,0l4.454,9.026,9.961,1.448L21.622,17.5l1.7,9.92-8.909-4.684L5.506,27.419l1.7-9.92L0,10.473,9.961,9.026Z" transform="translate(0 0)" fill="#f3c227"></path><path d="M14.415,0l4.454,9.026,9.961,1.448L21.622,17.5l1.7,9.92-8.909-4.684L5.506,27.419l1.7-9.92L0,10.473,9.961,9.026Z" transform="translate(36.203 0)" fill="#f3c227"></path><path d="M14.415,0l4.454,9.026,9.961,1.448L21.622,17.5l1.7,9.92-8.909-4.684L5.506,27.419l1.7-9.92L0,10.473,9.961,9.026Z" transform="translate(72.407 0)" fill="#f3c227"></path><path d="M14.415,0l4.454,9.026,9.961,1.448L21.622,17.5l1.7,9.92-8.909-4.684L5.506,27.419l1.7-9.92L0,10.473,9.961,9.026Z" transform="translate(108.61 0)" fill="#f3c227"></path><path d="M14.415,0l4.454,9.026,9.961,1.448L21.622,17.5l1.7,9.92-8.909-4.684L5.506,27.419l1.7-9.92L0,10.473,9.961,9.026Z" transform="translate(144.814 0)" fill="#f3c227"></path></g></g><g transform="translate(0)"><path d="M564.727,133.5c0,61.2-111.437,110.8-248.905,110.8S66.9,194.7,66.9,133.5C66.9,72.32,178.353,22.7,315.821,22.7S564.727,72.32,564.727,133.5Z" transform="translate(-66.899 308.583)" fill="url(#b)" style="mix-blend-mode:multiply;isolation:isolate"></path><g transform="translate(149.942 0)"><rect width="2.593" height="239.936" fill="url(#a)"></rect></g><g transform="translate(53.418 226.919)"><path d="M163.167,17.612V121.375a60.015,60.015,0,0,1-43.375-13.31,39.439,39.439,0,0,1-10.934,2.9c-20.972,2.6-40.293-10.9-43.089-30.16C62.973,61.579,77.7,43.889,98.658,41.294a42.327,42.327,0,0,1,11.431.191c8.673-12.518,23.062-21.535,40.331-23.644A60.766,60.766,0,0,1,163.167,17.612Z" transform="translate(-65.377 -17.231)" fill="url(#d)"></path><path d="M65.815,80.939c-.038-2.853-.687-5.715-.229-8.559l.658-4.3c.1-1.488.868-2.757,1.317-4.131a37.2,37.2,0,0,1,1.717-4.007l2.385-3.654c1.4-2.6,3.893-4.3,5.8-6.507a33.942,33.942,0,0,1,3.549-2.567,24.519,24.519,0,0,1,3.7-2.319c2.738-1,5.257-2.681,8.177-3.12l4.275-.964a20.334,20.334,0,0,1,4.36-.477,43.683,43.683,0,0,1,8.749.334l-.935.4,5.1-5.82,2.548-2.9,3.091-2.319,6.211-4.589c2.242-1.231,4.675-2.137,7-3.215l3.511-1.555a14.884,14.884,0,0,1,3.683-1.03L148,18.071c2.481-.668,5.076-.525,7.595-.687,2.529-.1,5.086.258,7.614.363-2.548.048-5.066-.162-7.585.1-2.528.305-5.066.315-7.471,1.126l-7.318,1.822a13.984,13.984,0,0,0-3.568,1.116l-3.387,1.641c-2.242,1.116-4.551,2.109-6.717,3.32L121.2,31.391l-2.977,2.271L115.793,36.5l-4.866,5.668-.372.439-.563-.038c-2.767-.153-5.467-.611-8.368-.324a19,19,0,0,0-4.16.41l-4.1.878c-2.805.382-5.21,1.975-7.853,2.9A24.424,24.424,0,0,0,81.94,48.6c-1.135.811-2.4,1.46-3.464,2.376C76.6,53.03,74.116,54.6,72.7,57.047L70.271,60.5A33.839,33.839,0,0,0,68.5,64.318c-.487,1.317-1.355,2.528-1.508,3.941l-.9,4.131C65.471,75.176,65.948,78.1,65.815,80.939Z" transform="translate(-65.423 -17.365)" fill="url(#e)"></path><path d="M134.332,114a48.331,48.331,0,0,1-27.546-4.713,59.1,59.1,0,0,1-28.777,11.65c-.782.076-1.565.191-2.338.229V17.4a59.051,59.051,0,0,1,37.04,17,50.381,50.381,0,0,1,9.656-2.261c24.665-3.015,47.316,12.862,50.608,35.446C176.267,90.215,159,110.987,134.332,114Z" transform="translate(22.118 -17.024)" fill="url(#f)"></path></g></g></g><g transform="translate(27.981 114.382)"><g transform="translate(4.501)"><path d="M76.7,63.93,50.191,95.72,72.23,60.68,33.8,45.287,73.937,55.422,76.7,14.116l2.767,41.306,40.135-10.135L81.183,60.68,103.22,95.72Z" transform="translate(419.359 129.142)" fill="#fff"></path><path d="M104.587,27.916,92.166,42.809l10.326-16.416-18-7.211,18.8,4.746,1.295-19.35,1.3,19.35,18.8-4.746-18,7.211L117.01,42.809Z" transform="translate(1307.944 -4.579)" fill="#fff"></path><path d="M114.257,47.219,101.836,62.112,112.163,45.7l-18-7.213,18.8,4.748,1.295-19.35,1.3,19.35,18.8-4.748-18,7.213L126.68,62.112Z" transform="translate(1464.973 308.893)" fill="#fff"></path><path d="M18.407,26,9.915,36.18l7.06-11.225L4.665,20.024l12.857,3.246.885-13.231.886,13.231L32.15,20.024,19.841,24.955,26.9,36.18Z" transform="translate(11.631 84.099)" fill="#fff"></path><path d="M105.535,31.983,96.725,42.544l7.322-11.64L91.281,25.788l13.333,3.367.921-13.721.919,13.721,13.333-3.367L107.021,30.9l7.322,11.64Z" transform="translate(1418.234 171.712)" fill="#fff"></path><path d="M18.243,52.84,9.268,63.6l7.46-11.864L3.72,46.528l13.587,3.431.936-13.983.938,13.983,13.587-3.431-13.009,5.21L27.219,63.6Z" transform="translate(-3.72 505.301)" fill="#fff"></path><path d="M49.68,74.262,43.342,92.589l3.837-19.01L27.79,73.217l19.264-2.226L41.41,52.436l8.068,17.636,15.9-11.1L51.1,72.093,66.574,83.785Z" transform="translate(387.172 772.61)" fill="#fff"></path><path d="M62.061,58.712l-15.829,11.2L60.427,56.7,44.879,45.108l16.953,9.416,6.223-18.369L64.339,55.19l19.391.24L64.48,57.778l5.763,18.517Z" transform="translate(664.677 508.221)" fill="#fff"></path><path d="M47.62,52.267,28.627,75.035l15.788-25.1L16.892,38.916l28.745,7.254L47.62,16.588,49.6,46.171l28.745-7.254L50.825,49.938l15.783,25.1Z" transform="translate(210.191 190.443)" fill="#fff"></path><path d="M78.316,40.782l-12.421,14.9L76.219,39.258l-18-7.211,18.8,4.748,1.293-19.35,1.3,19.35,18.8-4.748-18,7.211L90.739,55.677Z" transform="translate(881.301 204.365)" fill="#fff"></path><path d="M107.172,55.733l-6.3,7.549,5.234-8.321L96.985,51.3l9.53,2.407.657-9.808.658,9.808,9.53-2.407-9.125,3.657,5.234,8.321Z" transform="translate(1510.861 634.027)" fill="#fff"></path><path d="M59.984,56.834l-6.3,7.549,5.234-8.322L49.8,52.406l9.53,2.407L59.984,45l.659,9.808,9.53-2.407-9.125,3.657,5.234,8.322Z" transform="translate(744.559 651.922)" fill="#fff"></path><path d="M100.31,46.281l-6.3,7.549,5.234-8.322-9.125-3.657,9.53,2.407.657-9.808.659,9.808,9.53-2.407-9.125,3.657,5.234,8.322Z" transform="translate(1399.425 480.532)" fill="#fff"></path><path d="M36.863,32.708l-6.294,7.549L35.8,31.935l-9.125-3.657,9.53,2.407.657-9.808.659,9.808,9.53-2.407-9.125,3.657,5.234,8.322Z" transform="translate(369.078 260.115)" fill="#fff"></path><path d="M55.6,27.488l-6.294,7.549,5.232-8.322-9.125-3.657,9.53,2.407.657-9.808.659,9.808,9.53-2.407-9.125,3.657L61.9,35.038Z" transform="translate(673.379 175.353)" fill="#fff"></path><path d="M53.55,34.871l-6.3,7.549L52.488,34.1l-9.125-3.657,9.53,2.407.657-9.808.659,9.808,9.53-2.407L54.614,34.1l5.234,8.322Z" transform="translate(640.07 295.237)" fill="#fff"></path><path d="M95.821,50.681l-6.3,7.549,5.234-8.322-9.125-3.657,9.53,2.407.657-9.808.659,9.808,9.53-2.407-9.125,3.657,5.234,8.322Z" transform="translate(1326.536 551.998)" fill="#fff"></path><path d="M111.447,32.146l-6.3,7.549,5.234-8.322-9.125-3.657,9.53,2.407.657-9.808.659,9.808,9.53-2.407-9.125,3.657,5.234,8.322Z" transform="translate(1580.284 250.987)" fill="#fff"></path><path d="M48.375,44.481l-6.3,7.549,5.234-8.322-9.125-3.656,9.53,2.407.657-9.808.658,9.808,9.53-2.407-9.125,3.656,5.234,8.322Z" transform="translate(556.018 451.301)" fill="#fff"></path><path d="M30.876,39.768l-6.3,7.549L29.814,39l-9.125-3.656,9.53,2.407.657-9.808.659,9.808,9.53-2.407L31.94,39l5.234,8.322Z" transform="translate(271.848 374.767)" fill="#fff"></path><path d="M43.988,34.308l-6.3,7.549,5.234-8.322L33.8,29.88l9.53,2.407.657-9.808.659,9.808,9.53-2.407-9.125,3.657,5.234,8.322Z" transform="translate(484.788 286.109)" fill="#fff"></path><path d="M71.761,24.718l-6.294,7.549L70.7,23.946l-9.125-3.657L71.1,22.7l.657-9.808L72.42,22.7l9.53-2.407-9.125,3.657,5.234,8.322Z" transform="translate(935.811 130.369)" fill="#fff"></path><path d="M59.89,69.984,50.04,81.792l8.189-13.014L43.954,63.059l14.907,3.763L59.89,51.481l1.026,15.342,14.909-3.763L61.552,68.778l8.187,13.014Z" transform="translate(649.666 757.099)" fill="#fff"></path></g><path d="M72.667,72.663l20.37-18.039L75,74.993l18.04,20.37L72.667,77.323,52.3,95.363l18.04-20.37L52.3,54.624Z" transform="translate(789.677 808.135)" fill="#fff"></path><path d="M39.424,65.078l1.848-30.471L43.12,65.078l30.471,1.846L43.12,68.772,41.272,99.243,39.424,68.772,8.953,66.924Z" transform="translate(85.765 483.061)" fill="#fff"></path><path d="M129.918,80.331l1.86-30.668,1.862,30.668,30.666,1.86-30.666,1.86-1.862,30.668-1.86-30.668L99.25,82.191Z" transform="translate(1552.153 727.572)" fill="#fff"></path><path d="M21.4,63.5l1.09-17.936L23.572,63.5l17.936,1.09L23.572,65.678,22.485,83.614,21.4,65.678,3.459,64.592Z" transform="translate(-3.459 661.048)" fill="#fff"></path><path d="M58.289,75.5l1.09-17.936L60.466,75.5,78.4,76.586,60.466,77.672,59.378,95.608l-1.09-17.936L40.353,76.586Z" transform="translate(595.68 855.828)" fill="#fff"></path><path d="M116.083,76.6l1.089-17.936L118.26,76.6,136.2,77.69,118.26,78.776l-1.088,17.936-1.089-17.936L98.147,77.69Z" transform="translate(1534.231 873.748)" fill="#fff"></path><path d="M111.342,68.382l1.09-17.936,1.088,17.936,17.936,1.09L113.52,70.558l-1.088,17.936-1.09-17.936L93.406,69.472Z" transform="translate(1457.251 740.293)" fill="#fff"></path><path d="M131.914,86.117l2.729-44.982,2.729,44.982,44.982,2.727-44.982,2.729-2.729,44.982-2.729-44.982L86.933,88.844Z" transform="translate(1352.124 589.086)" fill="#fff"></path><path d="M78.452,57.8l-20.52-23.17L81.1,55.152l23.17-20.52L83.754,57.8l20.519,23.17L81.1,60.453,57.934,80.972Z" transform="translate(881.162 483.475)" fill="#fff"></path></g><g transform="translate(81.723 0)"><g transform="translate(1188.539 205.039)"><ellipse cx="254.727" cy="127.107" rx="254.727" ry="127.107" transform="translate(0 144.202)" fill="url(#g)" style="mix-blend-mode:multiply;isolation:isolate"></ellipse><g transform="translate(173.429)"><rect width="2.591" height="89.968" fill="url(#a)"></rect></g><g transform="translate(35.363 87.248)"><g transform="translate(0 0)"><path d="M240.3,92.64a76.944,76.944,0,0,1-86.595,66.3,78.094,78.094,0,0,1-26.618-8.844,84.342,84.342,0,0,1-40.858,20.722L91.862,5.287A81.658,81.658,0,0,1,120.48,19.165,76.712,76.712,0,0,1,240.3,92.64Z" transform="translate(62.984 -1.389)" fill="url(#f)"></path><path d="M232.417,8.16l-5.637,165.535a80.57,80.57,0,0,1-19.653,1.655,84.009,84.009,0,0,1-54.184-21.911A59.659,59.659,0,1,1,139.323,36.261a36.085,36.085,0,0,1,4.344.621A85.049,85.049,0,0,1,212.9,5.16,82.1,82.1,0,0,1,232.417,8.16Z" transform="translate(-77.57 -4.262)" fill="url(#j)"></path><path d="M77.572,94.881l1.19-12.223c1.241-3.913,2.293-7.982,3.741-11.9l3.034-5.448c1.1-1.758,1.827-3.793,3.258-5.327,2.81-3.051,5.12-6.689,8.4-9.292,3.4-2.431,6.241-5.758,10.171-7.361,3.81-1.758,7.344-4.258,11.533-5.051,4.069-1.069,8.068-2.62,12.343-2.569l6.31-.465c2.121-.362,4.31.293,6.258.448l-1.724.741c2.931-3.017,5.482-6.413,8.74-9.085a74.242,74.242,0,0,1,9.9-7.792c3.344-2.551,7.154-4.362,10.844-6.344a95.605,95.605,0,0,1,11.689-4.6c4.1-.845,8.051-2.345,12.24-2.638A68.593,68.593,0,0,1,207.955,5.1a71.78,71.78,0,0,1,12.361,1.052c4.1.448,8.068,1.914,12.068,2.793-4.1-.569-8.034-1.707-12.154-1.81a69.153,69.153,0,0,0-12.24-.069,66.06,66.06,0,0,0-12.068,1.4c-4.051.448-7.827,2.086-11.723,3.069-3.724,1.534-7.534,2.948-11.1,4.775-3.517,1.965-7.154,3.741-10.327,6.241a70.617,70.617,0,0,0-9.361,7.585c-3.086,2.586-5.448,5.913-8.223,8.792l-.793.828-.931-.086c-2.12-.207-3.948-.862-5.93-.534l-5.93.345c-4.017-.121-7.775,1.31-11.62,2.258-3.965.655-7.31,3-10.93,4.586-3.741,1.483-6.5,4.517-9.861,6.672-3.241,2.327-5.551,5.706-8.4,8.516-1.465,1.4-2.224,3.327-3.362,4.965l-3.189,5.12c-1.672,3.62-2.982,7.43-4.517,11.206Z" transform="translate(-77.537 -5.061)" fill="url(#k)"></path></g></g><path d="M206.132,7.963,200.512,173.5a54.788,54.788,0,0,1-16.05,1.793c-17.136-.586-32.479-8.568-44.1-21.567a40.67,40.67,0,0,1-14.447,2.465C99.022,155.275,78.128,127.8,79.231,94.85c1.138-33.117,23.86-59.115,50.753-58.2a27.476,27.476,0,0,1,3.534.586C146.914,17,167.533,4.308,190.237,5.084A55.276,55.276,0,0,1,206.132,7.963Z" transform="translate(-15.905 82.011)" fill="url(#l)"></path></g><g transform="translate(126.516 131.939)"><path d="M704.3,206.771c.81,91.628-154.553,167.293-347.016,168.983C164.8,377.46,8.109,304.571,7.3,212.942s154.57-167.293,347.033-169S703.486,115.142,704.3,206.771Z" transform="translate(-7.296 713.134)" fill="url(#m)" style="mix-blend-mode:multiply;isolation:isolate"></path><g transform="translate(263.399)"><rect width="2.593" height="712.296" fill="url(#a)"></rect></g><g transform="translate(32.697 711.471)"><g transform="translate(0 0)"><path d="M241.2,42.1,251.66,250.2a116.535,116.535,0,0,1-18.257,2.448A105.271,105.271,0,0,1,152.015,220.4a86.274,86.274,0,0,1-51.322,20.17A87.178,87.178,0,1,1,145.309,81.446,105.14,105.14,0,0,1,241.2,42.1Z" transform="translate(-9.192 -41.27)" fill="url(#o)"></path><path d="M9.2,157.713l.207-12.068a37.582,37.582,0,0,1,1.5-11.964c.983-3.931,1.5-8.085,2.913-11.9L18.9,110.649c1.4-3.913,4.362-6.879,6.586-10.326,2.431-3.275,4.534-6.879,7.758-9.482l9-8.447c3.344-2.345,6.948-4.379,10.43-6.586A40.711,40.711,0,0,1,63.8,70.515c3.9-1.31,7.637-3.189,11.671-4l12.24-1.931c4.069-.948,8.465-.465,12.309-.379a47.184,47.184,0,0,1,12.171,1.414c4.051.965,8.327,1.327,12.085,3.1,3.793,1.586,7.81,2.707,11.413,4.689l10.689,6.206-2.793.414,7.654-8.516,8.551-7.568a121.855,121.855,0,0,1,19.222-12.206,107.47,107.47,0,0,1,21.325-7.654c3.724-.655,7.413-1.431,11.12-2l11.24-.81-11.12,1.552c-3.655.81-7.241,1.81-10.844,2.689a132.952,132.952,0,0,0-20.481,8.62,120.229,120.229,0,0,0-18.205,12.55A138.325,138.325,0,0,0,146.84,82.618L145.7,83.98l-1.672-.931-10.258-5.793c-3.448-1.845-7.292-2.844-10.913-4.327-3.6-1.655-7.516-1.862-11.275-2.758a43.468,43.468,0,0,0-11.723-1.224c-4.172,0-7.861-.621-11.723.276L76.52,70.912c-3.844.707-7.413,2.483-11.137,3.672a38.222,38.222,0,0,0-10.637,4.9c-3.327,2.069-6.792,3.948-10.033,6.155l-8.827,7.827c-3.207,2.362-5.31,5.758-7.775,8.827-2.258,3.224-5.275,6-6.723,9.723l-5.344,10.62c-1.621,3.6-2.345,7.516-3.586,11.292A37.339,37.339,0,0,0,10.2,145.68Z" transform="translate(-9.086 -41.149)" fill="#fff"></path><path d="M265.3,139.6a55.479,55.479,0,0,1-52.65,58.218,53.855,53.855,0,0,1-19.929-2.724A78.138,78.138,0,0,1,91.264,213.214a105.947,105.947,0,0,1-58.149,36.2L22.65,41.318A105.869,105.869,0,0,1,91.333,79.383a77.909,77.909,0,0,1,96.18,12.188,54.631,54.631,0,0,1,19.567-4.724A55.515,55.515,0,0,1,265.3,139.6Z" transform="translate(209.353 -40.483)" fill="url(#p)"></path></g></g></g><g transform="translate(1009.641 135.492)"><ellipse cx="203.944" cy="85.241" rx="203.944" ry="85.241" transform="translate(42.494 652.596)" fill="url(#q)" style="mix-blend-mode:multiply;isolation:isolate"></ellipse><g transform="translate(174.284)"><rect width="2.593" height="549.343" fill="url(#a)"></rect></g><path d="M228.468,31.865V200.33c-15.429,0-29.549-6.534-40.927-17.5-9.258,8.482-20.67,13.55-33.066,13.55-15.671,0-55.132-9.5-64.511-9.5-20.515,0-37.082-20.791-37.082-46.5,0-25.687,16.567-46.478,37.082-46.478a30.037,30.037,0,0,1,13.171,3.069c8.827-24.566,28.463-41.737,51.34-41.737A46.652,46.652,0,0,1,177.422,61.4C189.748,43.312,208,31.865,228.468,31.865Z" transform="translate(-52.883 517.475)" fill="url(#s)"></path><path d="M52.883,140.388c.224-3.293.293-6.6.655-9.9.81-3.189,1.224-6.568,2.414-9.689,1.379-3.017,2.189-6.361,4.206-9.068a33.916,33.916,0,0,1,6.137-7.948c2.138-2.672,5.12-4.344,7.878-6.31,1.327-1.086,3.069-1.379,4.6-2.12,1.6-.5,3.086-1.517,4.827-1.552l5.068-.672c1.689-.431,3.517.19,5.068.224,3.293.017,6.568,1.621,9.861,2.672l-1.448.6c1.638-3.62,2.844-7.482,4.879-10.913a63.152,63.152,0,0,1,6.534-10.051c2.258-3.327,5.258-6.017,8.137-8.827,1.362-1.5,3.189-2.448,4.793-3.655a27.673,27.673,0,0,1,5.137-3.172,43.974,43.974,0,0,1,11.258-4.327,20.342,20.342,0,0,1,5.93-1.069c2.069-.121,3.879-.431,6.154-.414L166.664,55.9,177.87,60.6l-1.207.276A93.684,93.684,0,0,1,186.7,49.087a75.652,75.652,0,0,1,12.275-9.43,65.642,65.642,0,0,1,14.257-5.948,63.236,63.236,0,0,1,15.24-1.845,64.041,64.041,0,0,0-15.05,2.5,66.636,66.636,0,0,0-13.74,6.448,74.313,74.313,0,0,0-11.861,9.413,92.085,92.085,0,0,0-9.637,11.688l-.414.6-.793-.31L166.388,57.9,154.683,56.38c-1.638.069-3.741.362-5.586.517a19.02,19.02,0,0,0-5.62,1.1,42,42,0,0,0-10.637,4.258,27.04,27.04,0,0,0-4.827,3.1c-1.483,1.207-3.241,2.069-4.568,3.482-2.793,2.655-5.706,5.172-7.948,8.361a60.312,60.312,0,0,0-6.448,9.6c-2.034,3.31-3.241,7.034-4.913,10.533l-.448.914-1.017-.328c-3-.948-5.706-2.534-9.154-2.62-1.724-.086-3.189-.69-4.775-.31l-4.775.569c-1.638,0-3.051.948-4.586,1.414-1.448.672-3.12.914-4.4,1.931-2.655,1.845-5.551,3.379-7.637,5.93a34.036,34.036,0,0,0-6.068,7.585c-2.086,2.552-3,5.775-4.5,8.689-1.31,3-1.845,6.275-2.81,9.43C53.469,133.8,53.245,137.113,52.883,140.388Z" transform="translate(-52.883 517.475)" fill="#fff"></path><path d="M238.688,140.388c0,25.7-16.619,46.5-37.117,46.5-9.344,0-48.788,9.5-64.51,9.5-12.361,0-23.773-5.068-33.083-13.55-11.326,10.964-25.5,17.5-40.91,17.5V31.865c20.446,0,38.755,11.447,51.081,29.531a46.524,46.524,0,0,1,22.912-6.155c22.86,0,42.547,17.171,51.339,41.737a29.981,29.981,0,0,1,13.171-3.069C222.069,93.91,238.688,114.7,238.688,140.388Z" transform="translate(112.517 517.475)" fill="url(#f)"></path><path d="M170.038,31.865V200.33c-9.964,0-19.1-6.534-26.463-17.5-5.982,8.482-13.361,13.55-21.394,13.55-10.137,0-35.652-9.5-41.72-9.5-13.257,0-23.98-20.791-23.98-46.5,0-25.687,10.723-46.478,23.98-46.478a14.1,14.1,0,0,1,8.516,3.069c5.724-24.566,18.412-41.737,33.2-41.737,5.292,0,10.309,2.224,14.861,6.155C145.006,43.312,156.815,31.865,170.038,31.865Z" transform="translate(5.547 517.475)" fill="url(#u)"></path></g><g transform="translate(1020.238)"><g transform="translate(0)"><rect width="5.168" height="205.039" fill="url(#a)"></rect></g></g><g transform="translate(607.527 6.42)"><g transform="translate(0)"><rect width="5.168" height="319.07" fill="url(#a)"></rect></g></g><g transform="translate(0 496.102)"><g transform="translate(141.598)"><rect width="2.593" height="258.937" fill="url(#a)"></rect></g><path d="M397.285,100.207c0,41.841-88.387,75.768-197.411,75.768S2.464,142.048,2.464,100.207,90.851,24.439,199.875,24.439,397.285,58.367,397.285,100.207Z" transform="translate(-2.464 300.388)" fill="url(#y)" style="mix-blend-mode:multiply;isolation:isolate"></path><path d="M138.12,20.617V150.328c-11.878,0-22.756-5.034-31.514-13.464-7.12,6.517-15.912,10.43-25.463,10.43-12.068,0-42.444-7.327-49.685-7.327-15.774,0-28.549-16-28.549-35.789S15.685,68.388,31.459,68.388A23.054,23.054,0,0,1,41.613,70.75c6.792-18.912,21.929-32.135,39.53-32.135a35.87,35.87,0,0,1,17.671,4.741C108.3,29.426,122.363,20.617,138.12,20.617Z" transform="translate(4.779 238.32)" fill="url(#z)"></path><path d="M2.91,104.177A48.39,48.39,0,0,1,5.272,89.093c1.069-2.31,1.689-4.9,3.241-6.982a26.723,26.723,0,0,1,4.741-6.12c1.638-2.052,3.931-3.344,6.051-4.862,1.017-.828,2.379-1.052,3.551-1.621,1.241-.4,2.379-1.172,3.707-1.207l3.913-.517c1.293-.328,2.707.155,3.913.19,2.534,0,5.051,1.241,7.585,2.052l-1.121.448c1.276-2.776,2.189-5.741,3.758-8.4a48.416,48.416,0,0,1,5.034-7.741A46.648,46.648,0,0,1,55.9,47.545a42.043,42.043,0,0,1,7.637-5.258A34.291,34.291,0,0,1,72.23,38.96c2.982-1.052,6.034-.845,9.292-1.138l9,1.293,8.637,3.62-.931.224,7.741-9.068c3.034-2.569,6.31-4.827,9.447-7.258,3.569-1.741,7.344-3.051,10.964-4.586,3.913-.586,7.844-.948,11.74-1.431-3.9.655-7.775,1.207-11.585,1.948-3.534,1.672-7.172,3.155-10.568,4.965-3.034,2.431-6.223,4.706-9.137,7.241L99.4,43.753l-.362.448-.569-.224-8.154-3.31L81.3,39.494c-2.689.379-5.879.172-8.62,1.241a32.085,32.085,0,0,0-8.189,3.293,20.658,20.658,0,0,0-3.724,2.379,35.6,35.6,0,0,0-3.517,2.672,46.076,46.076,0,0,0-6.12,6.448,45.819,45.819,0,0,0-4.965,7.4c-1.569,2.534-2.5,5.413-3.793,8.1l-.328.707-.793-.241c-2.293-.741-4.4-1.965-7.051-2.034-1.31-.052-2.448-.534-3.672-.224l-3.672.431c-1.258,0-2.345.741-3.534,1.086-1.1.517-2.4.707-3.379,1.483-2.052,1.414-4.275,2.62-5.879,4.568a25.526,25.526,0,0,0-4.672,5.844c-1.621,1.965-2.31,4.448-3.482,6.689A48.094,48.094,0,0,0,2.91,104.177Z" transform="translate(4.779 238.32)" fill="#fff"></path><path d="M145.98,104.177c0,19.791-12.792,35.789-28.583,35.789-7.206,0-37.582,7.327-49.685,7.327-9.516,0-18.291-3.913-25.463-10.43-8.723,8.43-19.636,13.464-31.5,13.464V20.617c15.74,0,29.842,8.809,39.324,22.739a35.79,35.79,0,0,1,17.636-4.741c17.619,0,32.772,13.223,39.53,32.135A23.054,23.054,0,0,1,117.4,68.388C133.189,68.388,145.98,84.386,145.98,104.177Z" transform="translate(132.146 238.32)" fill="url(#aa)"></path><path d="M93.12,20.617V150.328c-7.672,0-14.705-5.034-20.377-13.464-4.6,6.517-10.292,10.43-16.464,10.43-7.81,0-27.463-7.327-32.135-7.327-10.206,0-18.464-16-18.464-35.789s8.258-35.789,18.464-35.789a10.884,10.884,0,0,1,6.568,2.362c4.4-18.912,14.171-32.135,25.566-32.135,4.069,0,7.93,1.707,11.43,4.741C73.846,29.426,82.932,20.617,93.12,20.617Z" transform="translate(49.779 238.32)" fill="url(#u)"></path></g><g transform="matrix(0.985, 0.174, -0.174, 0.985, 878.087, 173.394)"><g transform="translate(0 0)"><path d="M0,0V322.273H323.991V0ZM22.642,23.555H302.131V181.638L162.381,303.044H57.6L154.076,216.6H22.642Z" fill="#f3c227"></path><rect width="139.727" height="53.28" transform="translate(92.526 93.435)" fill="#f3c227"></rect></g></g></g></g><g transform="matrix(0.985, -0.174, 0.174, 0.985, -2606.059, 379.869)"><path d="M0,0V322.273H323.991V0ZM301.349,216.6H169.915L266.4,303.044H161.61L21.866,181.638V23.555H301.349Z" fill="#f3c227"></path><rect width="139.727" height="53.28" transform="translate(91.739 93.435)" fill="#f3c227"></rect></g><g transform="translate(-2894.004 687.501)"><g transform="translate(104.265 305.932)"><g transform="translate(0 0)"><path d="M642.523,1693.692a23.957,23.957,0,1,1-43.655-19.749q.113-.251.232-.5a84.6,84.6,0,0,1,13.372-18.552l35.281,16.452a90.731,90.731,0,0,1-5.107,22.075C642.607,1693.512,642.564,1693.6,642.523,1693.692Z" transform="translate(-575.952 -1654.892)" fill="#fff"></path><rect width="63.431" height="2.723" transform="translate(14.369 90.842) rotate(-65)" fill="#fff"></rect><g transform="translate(0 86.182)"><path d="M544.2,1943.22l6.746,4.772,6.745,4.768-29.44-13.869,7.974,2.166Z" transform="translate(-528.254 -1938.891)" fill="url(#ac)"></path></g></g><path d="M646.275,1752.117a21.14,21.14,0,0,1-40.1-11.735c.859-.3,8.352-2.926,15.713,6.791,9.679,12.778,18.865,7.951,24.495,4.7C646.35,1751.957,646.312,1752.037,646.275,1752.117Z" transform="translate(-582.404 -1714.06)" fill="#8b0000"></path></g><g transform="translate(311.947 164.76)"><path d="M1212.637,1199.64c.28.942,61.875,47.31,61.875,47.31l3.362-6.694-60.706-50.573Z" transform="translate(-1212.637 -1189.682)" fill="#e2ae8a"></path></g><g transform="translate(121.419 113.864)"><path d="M586.492,1046.96l1.19,2.493a17.414,17.414,0,0,0,22.674,8.461h0a17.414,17.414,0,0,0,9.348-22.073l-.955-2.548a17.339,17.339,0,0,0-19.663-10.978q-.478.1-.955.211A17.394,17.394,0,0,0,586.492,1046.96Z" transform="translate(-584.782 -1021.963)" fill="#fff"></path></g><g transform="translate(182.114 46.611)"><g transform="translate(156.488 79.542)"><path d="M1303.315,1091.624c1.047,4.04,73.394-21.861,73.394-21.861l-1.664-7.3-74.568,18.6Z" transform="translate(-1300.476 -1062.459)" fill="#f4c5a2"></path></g><g transform="translate(0 75.429)"><path d="M995.671,1074.94l-6.425-26.035-117.484,31.111-32.5,43.112c-3.474-5.865-16.409-17.781-16.409-17.781l-38.054,75.061c21.485.769,47.276,5.2,57.467-14.12l43.691-68.621Z" transform="translate(-784.795 -1048.905)" fill="#1f2e44"></path></g><g transform="translate(213.643 0.277)"><path d="M1503.261,891.213l-6.52-16.147,2.829-.983c3.29-1.564,6.141-3.01,6.477-6.807h0a12.816,12.816,0,0,0-.981-6.162l-15.357-42s-3.745-13.192,4.156-17.86L1532,881.3Z" transform="translate(-1488.822 -801.253)" fill="#1f2e44"></path></g><g transform="translate(213.594 0)"><path d="M1489.993,820.125c.03.016.064.037.1.061a12.482,12.482,0,0,0,12.8.776,2.4,2.4,0,0,1,.519-.215l-9.723-20.4c-8.121,4.844-3.96,19.063-3.96,19.063Z" transform="translate(-1488.66 -800.341)" fill="#fff"></path></g><g transform="translate(217.908 28.254)"><g transform="translate(4.181 12.003)"><path d="M1516.9,933.286l-.1-.287-.142.212Z" transform="translate(-1516.654 -932.999)" fill="none"></path></g><g transform="translate(4.427 12.289)"><path d="M1521.6,970.461l.789-5.177,5.472,1.207-2.4-4.589c4.63-1.923,4.667-2.105,4.69-2.215l.017-.1-.067-.07c-.132-.135-2.854-1.683-4.211-2.45l3.161-4.031-4.849-1.494,2.8-5.283-5.028-1.032,3.313-3.719-5.173-.752,2.608-5.215-5.261-1.592.157.43,4.582,1.387-2.354,4.707.237.648,4.479.652-3.006,3.375.145.4,4.749.974-2.6,4.9.164.447,4.419,1.362-2.858,3.644q.034.235.06.471c1.419.8,3.4,1.932,4.017,2.309-.655.354-2.864,1.3-4.364,1.927q-.083.226-.182.439l2.061,3.948-4.724-1.041c-.137.09-.274.179-.416.266l-.8,5.217Z" transform="translate(-1517.465 -933.944)" fill="#e8e8e8"></path></g><path d="M1510.162,901l-5.058-1.6,2.525-5.858-4.748-.1,0,.182.068.185,4.134.083-2.22,5.15.273.746,4.457,1.407-2.544,3.823.156.426Z" transform="translate(-1502.876 -893.446)" fill="#e8e8e8"></path><g transform="translate(2.466 39.116)"><path d="M1513.813,1024.952a17.439,17.439,0,0,1,1.166,3.261l2.055,3.56a.183.183,0,1,1-.316.183l-.617-1.067c1.33,3.394,1.2,4.245.963,4.43-.275.21-.665-.106-.793-.21-2.067-1.679-1.729-6.019-1.656-6.75-.569-.484-3.94-3.443-3.589-5.3.11-.581.388-.71.6-.716C1512.226,1022.331,1513.074,1023.409,1513.813,1024.952Zm.664,2.8c-.831-2.932-2.25-5.051-2.839-5.036-.151,0-.223.264-.253.418C1511.122,1024.531,1513.468,1026.834,1514.478,1027.749Zm1.145,5.909a3.338,3.338,0,0,0,.88,1.167c.26.211.348.2.35.2.281-.311-.731-3.224-1.914-5.986A10.6,10.6,0,0,0,1515.622,1033.658Z" transform="translate(-1511.001 -1022.347)" fill="#e8e8e8"></path></g><g transform="translate(6.084 40.848)"><path d="M1529.521,1030a.165.165,0,0,1,.008.019.183.183,0,0,1-.113.233l-6.241,2.176a.182.182,0,0,1-.221-.086.17.17,0,0,1,.049-.232l5.223-4.021a.183.183,0,0,1,.256.033.187.187,0,0,1-.033.257l-4.326,3.33,5.173-1.8A.182.182,0,0,1,1529.521,1030Z" transform="translate(-1522.926 -1028.054)" fill="#e8e8e8"></path></g></g><g transform="translate(222.752 17.424)"><path d="M1552.966,920.636l-4.258,1.469-29.867-62.339,4.189-2.007Z" transform="translate(-1518.84 -857.759)" fill="#fff"></path></g></g><g transform="translate(360.313 150.13)"><g transform="translate(0 2.132)"><path d="M1372.019,1212.858l4.67-14.211,2.4.923c3.026.8,5.7,1.428,8.024-.878h0a11.007,11.007,0,0,0,2.771-4.588l13.2-36.077s4.854-10.735,12.627-9.418l-19.34,73.671Z" transform="translate(-1372.019 -1148.496)" fill="#1f2e44"></path><g transform="translate(4.258 18.123)"><g transform="translate(2.083)"><g transform="translate(17.614 10.271)"><path d="M1451.077,1242.312l.09-.246-.21.061Z" transform="translate(-1450.957 -1242.066)" fill="none"></path></g><g transform="translate(0 10.517)"><path d="M1393.12,1269.135l3.387-2.96,2.923,3.825.971-4.34c4.1,1.3,4.23,1.205,4.305,1.146l.069-.059-.005-.083c-.011-.162-.94-2.686-1.406-3.943l4.309-.893-2.355-3.668,4.768-1.914-2.728-3.464,4.236-.605-2.978-3.362,4.6-1.977-2.571-3.961-.135.369,2.239,3.45-4.154,1.784-.2.557,2.578,2.91-3.844.55-.125.341,2.577,3.271-4.424,1.776-.14.384,2.146,3.343-3.9.807c-.072.116-.146.23-.221.343.486,1.313,1.16,3.152,1.357,3.742-.625-.13-2.6-.732-3.933-1.154-.12.069-.24.131-.363.188l-.835,3.733-2.523-3.3c-.14-.016-.28-.034-.421-.056l-3.413,2.983Z" transform="translate(-1392.913 -1242.878)" fill="#d3d3c9"></path></g><g transform="translate(17.824)"><path d="M1456.062,1217.211l-2.435-3.852,4.9-2.445-3.063-2.695-.1.117-.058.159,2.667,2.345-4.311,2.15-.234.641,2.146,3.393-3.789,1.1-.134.366Z" transform="translate(-1451.651 -1208.22)" fill="#e8e8e8"></path></g></g><g transform="translate(0 27.289)"><path d="M1390.113,1301.162a14.98,14.98,0,0,1-1.043,2.787l-.624,3.476a.154.154,0,0,1-.182.127.157.157,0,0,1-.127-.182l.187-1.042c-1.008,2.965-1.562,3.454-1.823,3.441-.3-.014-.378-.438-.4-.577-.426-2.247,2.2-4.908,2.654-5.348-.1-.633-.677-4.444.58-5.465.394-.32.648-.251.792-.136C1390.524,1298.563,1390.483,1299.74,1390.113,1301.162Zm-1.115,2.2c1.08-2.385,1.323-4.562.928-4.878-.1-.081-.293.05-.4.135C1388.58,1299.4,1388.843,1302.206,1389,1303.366Zm-2.523,4.513a2.866,2.866,0,0,0-.07,1.254c.054.283.118.324.119.324.357-.048,1.308-2.521,2.062-4.99A9.1,9.1,0,0,0,1386.475,1307.879Z" transform="translate(-1386.05 -1298.146)" fill="#d3d3c9"></path></g><g transform="translate(2.713 32.885)"><path d="M1400.6,1318.816l-.006.017a.157.157,0,0,1-.2.09l-5.3-2.031a.157.157,0,0,1-.1-.179.147.147,0,0,1,.161-.125l5.656.256a.158.158,0,0,1,.15.164.16.16,0,0,1-.164.15l-4.685-.212,4.4,1.684A.157.157,0,0,1,1400.6,1318.816Z" transform="translate(-1394.989 -1316.588)" fill="#d3d3c9"></path></g></g><g transform="translate(20.744 14.918)"><path d="M1443.989,1256.522l-3.609-1.4,14.948-57.468,3.862,1Z" transform="translate(-1440.379 -1197.658)" fill="#fff"></path></g><g transform="translate(10.348 57.984)"><g transform="translate(0 0)"><circle cx="4.125" cy="4.125" r="4.125" transform="translate(0 8.229) rotate(-85.859)" fill="#fff"></circle></g></g></g><g transform="translate(30.759 0)"><path d="M1473.382,1152.1c.01.028.02.06.029.1a10.725,10.725,0,0,0,7.7,7.87c.184.046.683.018.8.079l5.223-18.519c-7.965-1.6-13.51,9.859-13.51,9.859Z" transform="translate(-1473.382 -1141.471)" fill="#fff"></path></g></g><g transform="translate(198.437 133.607)"><path d="M858.3,1188.487c-13.037,0-19.647-6.671-19.723-6.75l.742-.715c.111.114,8.71,8.719,25.751,5.85l55.566-76.421.192-.042,108.117-23.388.218,1.008-107.925,23.346-55.581,76.442-.206.036A41.907,41.907,0,0,1,858.3,1188.487Zm-19.352-7.107.371-.358h0Z" transform="translate(-838.582 -1087.021)" fill="#1f2e44"></path></g><g transform="translate(182.114 178.482)"><g transform="translate(0 0)"><path d="M859.508,1237.964l-20.251,14.716c-3.474-5.865-16.409-17.781-16.409-17.781l-38.054,75.061c21.485.77,47.276,5.2,57.467-14.12l10.57-16.6Z" transform="translate(-784.795 -1234.899)" fill="#143452"></path></g></g><g transform="translate(210.189 197.55)"><path d="M878.014,1297.737s16.926,19.748,18.681,27.233c0,0-16.92-22.794-19.379-25.154A14.49,14.49,0,0,1,878.014,1297.737Z" transform="translate(-877.309 -1297.737)" fill="#1f2e44"></path></g><g transform="translate(227.397 112.705)"><path d="M934.017,1104.7l24.658-80.175a9.029,9.029,0,0,1,14.593-4.125l82.774,68.737L1043.3,1110l-71.215-60.522-2.423,10.987a431.343,431.343,0,0,1-17.368,58.625h0Z" transform="translate(-934.017 -1018.144)" fill="#143452"></path></g><g transform="translate(67.419 94.945)"><path d="M406.835,959.617l65.322,4.57-7.976,45.355-21.916,16.066Z" transform="translate(-406.835 -959.617)" fill="#e13d00"></path></g><g transform="translate(87.661 110.51)"><path d="M583.227,1159.025l24.884-82.237s-10.83,3.4-35.513-17.117c-16.6-13.8-28.739-36.853-45.309-45.1l-19.3-3.657-19.7,22.975c-14.24,16.611-17.429,34.537-12.741,51.691,1.73,6.333,14.385,24.287,29.175,40.419,1.147,1.251,2.649,2.735,4.448,4.362a98.145,98.145,0,0,0,56.78,24.828Z" transform="translate(-473.538 -1010.91)" fill="#edf1f4"></path></g><g transform="translate(91.581 106.52)"><ellipse cx="21.629" cy="21.629" rx="21.629" ry="21.629" transform="translate(0 1.752) rotate(-2.321)" fill="#e2ae8a"></ellipse></g><g transform="translate(0 0)"><g transform="translate(53.884 133.508)"><path d="M362.233,1090.68l12.176,8.91,6.858-1.558L367.78,1086.7A10.7,10.7,0,0,1,362.233,1090.68Z" transform="translate(-362.233 -1086.696)"></path></g><g transform="translate(14.524 29.453)"><path d="M259.007,843.111a7.153,7.153,0,0,1,5.876-6.787c-16.425-15.353-32.357-31.232-32.357-31.232L307.253,743.8s50.3,43.628,52.835,65.955c1.815,15.982-44.722,57.885-60.806,54.807-3-.573-11.734-7.693-21.94-16.818a10.77,10.77,0,0,1-7.52,4.5C265.41,853.059,258.466,849.965,259.007,843.111Z" transform="translate(-232.526 -743.797)" fill="#bcb8b5"></path></g><g transform="translate(14.524 29.453)"><path d="M259.007,843.111a7.153,7.153,0,0,1,5.876-6.787c-16.425-15.353-32.357-31.232-32.357-31.232L307.253,743.8s50.3,43.628,52.835,65.955c1.815,15.982-44.722,57.885-60.806,54.807-3-.573-11.734-7.693-21.94-16.818a10.77,10.77,0,0,1-7.52,4.5C265.41,853.059,258.466,849.965,259.007,843.111Z" transform="translate(-232.526 -743.797)" fill="#f4c5a2"></path></g><g transform="translate(82.124 59.179)" opacity="0.23"><path d="M471.587,842.6a3.075,3.075,0,0,0-4.053-.147c-2.465,2.188-4.965,4.334-7.465,6.482a3.008,3.008,0,0,0-.943,1.478q-1.406,1.044-2.813,2.087a2.774,2.774,0,0,0-1.021,1.708c.234.315.459.635.687.944.1.139.2.279.306.418.339.287.633.713.943,1.031.693.714,1.4,1.415,2.11,2.111a63.026,63.026,0,0,1,11.776,8.667,68.428,68.428,0,0,1,5.9,6.371c.033.032.067.065.1.1,2.714,2.9,6.167,5,8.078,8.6l0,.006a2.768,2.768,0,0,0,2.2-3.853,77.225,77.225,0,0,0-4.862-7.479c-1.646-2.576-3.275-5.163-4.923-7.732-1.541-2.4-3.138-4.772-4.719-7.149-1.317-1.98-2.578-4.094-4.012-6.021q1.589-1.783,3.145-3.592A3.072,3.072,0,0,0,471.587,842.6Z" transform="translate(-455.293 -841.755)" fill="#e2a881"></path></g><g transform="translate(14.524 29.453)" opacity="0.23"><path d="M307.253,743.8l-74.727,61.295s15.932,15.879,32.357,31.232a7.153,7.153,0,0,0-5.876,6.787c-.541,6.854,6.4,9.948,10.814,9.126a14.724,14.724,0,0,0,3.269-.959,10.773,10.773,0,0,1-3.147-.323,6.41,6.41,0,0,1-3.975-10,8.235,8.235,0,0,1,7.572-3.511q-.172-.555-.366-1.1a5.777,5.777,0,0,0-.43-1.166c.1.1.294.7.034.127-.065-.142-.127-.284-.193-.425a41.728,41.728,0,0,0-4.156-6.837l-.012-.017-.162-.208q-.287-.363-.579-.723-.634-.78-1.29-1.542c-.843-.981-1.707-1.944-2.581-2.9-1.447-1.581-2.909-3.146-4.343-4.734-1-.816-2.03-1.584-3.117-2.312a34.3,34.3,0,0,0-3.114-1.864c-.563-.3-1.135-.573-1.717-.828a12.124,12.124,0,0,0-1.175-.455,2.195,2.195,0,0,1-1.555-2.611c.006-.023.015-.046.022-.069a1.912,1.912,0,0,1,.473-1.338,4.8,4.8,0,0,1-1.546-4.471,1.981,1.981,0,0,1,1.031-1.514l.255-.126a4.029,4.029,0,0,1,3.217-1.85c.055,0,.109-.005.164-.008q7.372-4.285,14.386-9.146c4.194-2.9,8.424-5.848,12.394-9.052.017-.018.731-.609.812-.673q.29-.231.582-.459.969-.76,1.95-1.5,1.6-1.215,3.226-2.386c2.036-1.467,4.1-2.894,6.157-4.333,1.066-.746,2.121-1.507,3.185-2.256l.086-.06.028-.026c.107-.1.221-.192.329-.289.319-.285.63-.58.937-.877,1.368-1.326,2.66-2.727,4-4.083,2.61-2.644,5.819-5.932,9.651-6.576a4.007,4.007,0,0,1,4.1,1.5c2.4,1.39,4.37,3.776,6.126,5.734a136.077,136.077,0,0,0,9.921,9.741c7.2,6.541,14.186,13.456,17.454,22.848a40.079,40.079,0,0,1,.394,23.539,51.342,51.342,0,0,1-4.6,11.231,65.989,65.989,0,0,1-7.651,10.632q-1.458,1.716-2.973,3.377c14.909-12.612,28.177-28.929,27.192-37.607C357.552,787.425,307.253,743.8,307.253,743.8Z" transform="translate(-232.526 -743.797)" fill="#e2a881"></path></g><g transform="translate(14.524 29.453)"><g clip-path="url(#ad)"><path d="M470.06,876.691c4.669,26.707,17.736,75.1-16.732,75.1s-59.461,10.867-71.851-13.249c-9.964-19.393,17.634-12.072,45.182-32.787C443.09,893.4,465.116,848.416,470.06,876.691Z" transform="translate(-334.828 -829.974)" fill="#bababa" opacity="0.3"></path></g></g><g transform="translate(82.744 67.163)"><path d="M481.93,895.767l-8.347,8.1,1.531.114a16.912,16.912,0,0,1,1.311-1.1l-.277-.021,7.291-7.074-.184-.359c-2.5-4.881-17.768-16.125-24.218-20.732a1.167,1.167,0,0,1-.447-1.2,1.973,1.973,0,0,1,.874-1.277l4.845-3.23-.538-.917-4.845,3.23a3.5,3.5,0,0,0-1.55,2.265,2.072,2.072,0,0,0,.793,2.127c2.814,2.01,8.284,5.987,13.3,10.028C477.082,890.245,480.682,893.705,481.93,895.767Z" transform="translate(-457.337 -868.065)" fill="#c6865c"></path></g><g transform="translate(105.84 107.619)"><path d="M541.37,1002.514l.273.02c-.668,1.288-2.761,4.326-8.2,5.982l.12,1.117a17.613,17.613,0,0,0,6.119-3.157,10.649,10.649,0,0,0,3.391-4.424l.2-.6-.976-.072Q541.853,1001.961,541.37,1002.514Z" transform="translate(-533.446 -1001.381)" fill="#c6865c"></path></g><g transform="translate(111.957 68.721)" opacity="0.6"><ellipse cx="7.148" cy="4.288" rx="7.148" ry="4.288" transform="matrix(0.58, -0.814, 0.814, 0.58, 0, 11.641)" fill="#e2a881"></ellipse></g><g transform="translate(66.072 107.304)" opacity="0.6"><ellipse cx="7.148" cy="4.288" rx="7.148" ry="4.288" transform="translate(0 5.861) rotate(-24.204)" fill="#e2a881"></ellipse></g><g transform="translate(0)"><path d="M231.48,769.177l10.273,4.548-.173-2.692c-4.561-8.56-29.627-24.453-32.858-28.762l4.4-1.393-4.669-2.086,3.537-2.9-3.8-.579s48.323-28.544,71-54.542l6.686,6.348s8.82-9.083,3.358-17.545c0,0-4.187-2.851-5.73,2.481,0,0,5.529-18.956-8.117-24.773s-56.7,37.264-56.7,37.264-25.808,33-28.95,46.3l-5.072-2.126,4.493,5.929s-2.108,2.839-2.047,4.267,3.82-1.654,3.82-1.654l-.981,3.763,3.117-.708s29.361,31.712,32.863,33.277C225.932,773.6,226.523,770.81,231.48,769.177Z" transform="translate(-184.666 -646.741)"></path></g></g><g transform="translate(55.424 90.466)"><path d="M377.687,963.6a11.985,11.985,0,0,1-10.228-5.707,1.031,1.031,0,0,1,1.756-1.079,9.92,9.92,0,1,0,16.9-10.385,1.03,1.03,0,1,1,1.756-1.079,11.977,11.977,0,0,1-10.189,18.25Z" transform="translate(-367.306 -944.857)" fill="#323741"></path></g><g transform="translate(93.33 60.191)"><path d="M502.6,863.832a11.984,11.984,0,0,1-10.228-5.706,1.031,1.031,0,1,1,1.756-1.079,9.92,9.92,0,0,0,16.9-10.385,1.031,1.031,0,1,1,1.756-1.079,11.977,11.977,0,0,1-10.189,18.25Z" transform="translate(-492.221 -845.091)" fill="#323741"></path></g><g transform="translate(118.324 335.97)"><path d="M596.559,1773.638l-7.283-12.745,7.283,7.889,3.035,4.249,3.641-1.214s-3.641-12.745-5.462-13.352-15.07-4.59-15.07-4.59l-7.386,2.77-.733,2.011,9.837,24.693,19.421-.607,6.676-6.676Z" transform="translate(-574.584 -1753.875)" fill="#f4c5a2"></path></g><g transform="translate(88.14 192.343)"><path d="M475.117,1283.307l7.283,68.275,22.9,77.4,8.119-4.78-21.007-74.9-.91-68.73Z" transform="translate(-475.117 -1280.577)" fill="#f4c5a2"></path></g><g transform="translate(84 168.768)"><path d="M462.439,1211.333l-.964,28.33,33.27,2.276,2.161-17.788a18.849,18.849,0,0,0-15.293-20.84C474.73,1202.064,467.275,1203.246,462.439,1211.333Z" transform="translate(-461.475 -1202.888)" fill="#fff"></path></g><g transform="translate(173.68 155.555)"><path d="M768.835,1159.545l-6.676.3-4.248,5.462-.91,4.855,3.338.3,1.517-3.945,4.552-.607v6.98l-6.069,8.8,2.124,2.124,7.283-8.193,1.821-3.034.607,2.427-.91,4.249-4.552,6.069,2.731,1.518,8.5-3.945,3.945-16.69s-1.517-5.462-4.248-6.373S768.835,1159.545,768.835,1159.545Z" transform="translate(-757 -1159.347)" fill="#f4c5a2"></path></g></g></g></svg> 