<?xml version="1.0" encoding="UTF-8"?> <svg xmlns="http://www.w3.org/2000/svg" xmlns:xlink="http://www.w3.org/1999/xlink" width="655.745" height="159.141" viewBox="0 0 655.745 159.141"><defs><linearGradient id="linear-gradient" x1="0.5" y1="1" x2="0.5" gradientUnits="objectBoundingBox"><stop offset="0" stop-color="#ff9e4c" stop-opacity="0"></stop><stop offset="0.345" stop-color="#ff9e4c"></stop><stop offset="0.724" stop-color="#ff9e4c"></stop><stop offset="1" stop-color="#8c9093" stop-opacity="0"></stop></linearGradient></defs><g id="Group_230" data-name="Group 230" transform="translate(0 -3.815)"><g id="Group_228" data-name="Group 228" transform="translate(0 19.448)"><path id="Path_1383" data-name="Path 1383" d="M185.593,55.967c0-18.8,13.506-32.722,31.468-32.722s31.466,13.925,31.466,32.722S235.02,88.687,217.061,88.687,185.593,74.764,185.593,55.967Zm-3.2,0c0,20.187,14.619,35.782,34.669,35.782s34.669-15.6,34.669-35.782-14.619-35.784-34.669-35.784S182.392,35.776,182.392,55.967ZM123.5,23.246c10.3,0,26.455,6.127,26.455,28.544v1.531H93.981C95.232,34.106,109.3,23.246,123.5,23.246Zm29.379,33.138a49.211,49.211,0,0,0,.28-5.013c0-19.632-13.368-31.188-29.518-31.188-18.378,0-33,15.038-33,35.784,0,21.024,15.038,35.782,35.5,35.782a42.019,42.019,0,0,0,22.7-6.544V81.446a37.941,37.941,0,0,1-22.558,7.24c-19.354,0-32.3-13.923-32.442-32.3ZM0,90.218H3.2V36.472c8.633-7.8,17.823-13.227,28.961-13.227,6.685,0,11.418,1.95,14.76,5.429,4.037,4.177,5.57,9.609,5.57,19.076V90.218h3.2V47.194c0-9.607-1.811-16.15-6.405-20.746-4.177-4.175-10.025-6.264-16.988-6.264-11.556,0-21.3,5.848-28.961,12.53L3.2,32.575V21.714H0Z" transform="translate(0 -1.386)" fill="#080402"></path><path id="Path_1384" data-name="Path 1384" d="M435.489,98.547c-9.468,0-19.491-4.455-19.491-16.014,0-12.53,11.973-16.289,23.25-16.289a74.641,74.641,0,0,1,21.026,3.481V88.242C453.591,94.508,444.54,98.547,435.489,98.547Zm0,3.063c9.747,0,18.38-4.177,25.063-9.886h.141c1.252,6.127,5.288,9.329,11.416,9.329a13.816,13.816,0,0,0,5.29-.974v-3.2a11.086,11.086,0,0,1-5.013,1.115c-7.518,0-8.91-5.709-8.91-13.506V54.965c0-8.353-1.67-14.9-7.1-19.352-4.177-3.342-10.444-5.57-17.823-5.57a38.5,38.5,0,0,0-21.024,6.264v3.481a36.293,36.293,0,0,1,21.024-6.683c6.4,0,11.554,1.67,15.593,5.013,5.013,4.177,6.127,9.19,6.127,17.823V66.663a76.243,76.243,0,0,0-21.026-3.342c-6.264,0-13.227.974-18.515,4.455a17.4,17.4,0,0,0-7.938,15.177,16.5,16.5,0,0,0,6.962,14.064C423.933,100.078,429.643,101.61,435.489,101.61Zm-71.146-5.29c3.2,3.759,8.355,5.29,13.643,5.29a25.474,25.474,0,0,0,9.051-1.811v-3.34a19.1,19.1,0,0,1-8.91,2.089c-13.088,0-15.177-8.912-15.177-21.72V34.5h24.087V31.575H362.951V11.247l-3.2.555V31.575h-14.9V34.5h14.9V77.243C359.747,85.318,360.585,92.142,364.343,96.32Zm-105.257,3.759h3.2V46.333c8.633-7.8,17.823-13.227,28.961-13.227,6.685,0,11.418,1.95,14.76,5.429,4.039,4.177,5.568,9.609,5.568,19.076v42.467h3.2V57.054c0-9.607-1.811-16.15-6.405-20.746-4.177-4.175-10.025-6.264-16.988-6.264-11.556,0-21.3,5.848-28.958,12.53l-.141-.139V31.575h-3.2Zm-64.6-66.972c10.3,0,26.455,6.127,26.455,28.544v1.531H164.964C166.22,43.966,180.28,33.106,194.482,33.106Zm29.379,33.138a49.215,49.215,0,0,0,.28-5.013c0-19.632-13.368-31.188-29.518-31.188-18.38,0-33,15.038-33,35.784,0,21.024,15.036,35.782,35.5,35.782a42.017,42.017,0,0,0,22.694-6.544V91.307a37.939,37.939,0,0,1-22.555,7.24c-19.354,0-32.3-13.923-32.442-32.3Z" transform="translate(178.347 -11.247)" fill="#080402"></path></g><g id="Group_229" data-name="Group 229" transform="translate(238.008 3.815)"><path id="Path_1385" data-name="Path 1385" d="M131.026,5.666l48.362,66.755-66.238,88.647,2.528,1.889L183.306,72.45,133.582,3.815l-2.555,1.851Z" transform="translate(-113.151 -3.815)" fill="url(#linear-gradient)"></path></g></g></svg> 