<?xml version="1.0" encoding="UTF-8"?> <svg xmlns="http://www.w3.org/2000/svg" viewBox="-383 42 371.234 27.267"><defs><style>.a{fill:#555b6e;}.b{fill:#89b0ae;}</style></defs><g transform="translate(-383 42)"><path class="a" d="M0,1.2H4.762V23.378H17.275V27.3H0Z" transform="translate(0 -0.64)"></path><path class="a" d="M72.659,1.2h4.576L87.646,27.3H82.837l-2.381-6.023H69.437L67.1,27.3H62.2ZM79.2,17.355l-4.2-11.112-4.2,11.112Z" transform="translate(-33.159 -0.64)"></path><path class="a" d="M136.4,1.2h4.949l5.183,18.443L151.668,1.2h3.642l5.136,18.443L165.628,1.2h4.949l-7.424,26.1h-4.389L153.489,9.137,148.259,27.3H143.87Z" transform="translate(-72.714 -0.64)"></path><path class="b" d="M240.247,1.2H257.9V5.169H244.962V12.5h9.618v3.548h-9.618v11.3H240.2V1.2Z" transform="translate(-128.05 -0.64)"></path><path class="b" d="M309.37,25.54a12.269,12.269,0,0,1-4.949-4.809,13.725,13.725,0,0,1-1.821-7.1,13.725,13.725,0,0,1,1.821-7.1,12.567,12.567,0,0,1,4.949-4.809,15.345,15.345,0,0,1,14.147,0,12.575,12.575,0,0,1,4.949,4.809,13.725,13.725,0,0,1,1.821,7.1,13.725,13.725,0,0,1-1.821,7.1,12.889,12.889,0,0,1-4.949,4.809,14.213,14.213,0,0,1-7.05,1.728A15.33,15.33,0,0,1,309.37,25.54ZM321,21.8a8.154,8.154,0,0,0,3.268-3.268,9.784,9.784,0,0,0,1.214-4.9,9.731,9.731,0,0,0-1.214-4.856A8.457,8.457,0,0,0,321,5.509a8.9,8.9,0,0,0-4.576-1.167A9.2,9.2,0,0,0,311.8,5.509a8.457,8.457,0,0,0-3.268,3.268,9.731,9.731,0,0,0-1.214,4.856,9.784,9.784,0,0,0,1.214,4.9A8.783,8.783,0,0,0,311.8,21.8a10,10,0,0,0,9.2,0Z" transform="translate(-161.315)"></path><path class="b" d="M391.4,1.2h10.926c2.895,0,5.136.7,6.677,2.148,1.587,1.4,2.335,3.455,2.335,6.163a8.423,8.423,0,0,1-1.4,4.9,7.826,7.826,0,0,1-4.015,2.895l5.323,10.038h-4.856l-5.043-9.572h-5.136v9.572h-4.762V1.2Zm10.085,12.606a6.114,6.114,0,0,0,3.735-1.074,3.858,3.858,0,0,0,1.4-3.268c0-2.895-1.728-4.389-5.136-4.389h-5.323V13.76h5.323Z" transform="translate(-208.654 -0.64)"></path><path class="b" d="M463.747,1.2h8.731a15.781,15.781,0,0,1,7.377,1.587,10.911,10.911,0,0,1,4.809,4.482,13.594,13.594,0,0,1,1.681,6.863c0,4.342-1.261,7.611-3.782,9.852s-6.023,3.362-10.552,3.362H463.7V1.2Zm8.4,22.178c3.035,0,5.369-.794,7-2.428a9.226,9.226,0,0,0,2.428-6.817,9.981,9.981,0,0,0-1.074-4.669,7.764,7.764,0,0,0-3.082-3.175,9.7,9.7,0,0,0-4.762-1.121h-4.155V23.425h3.642Z" transform="translate(-247.197 -0.64)"></path><path class="b" d="M545.459,1.2h4.576l10.412,26.1h-4.809l-2.381-6.023H542.19L539.856,27.3H535ZM552,17.355l-4.2-11.112-4.2,11.112Z" transform="translate(-285.207 -0.64)"></path><path class="b" d="M619.2,1.2h12.42a8.31,8.31,0,0,1,5.6,1.774A6.624,6.624,0,0,1,639.23,8.2a6.19,6.19,0,0,1-.887,3.315,5.973,5.973,0,0,1-2.335,2.241q4.062,1.331,4.062,6.023a7.45,7.45,0,0,1-1.027,4.015,7.183,7.183,0,0,1-2.8,2.615,8.361,8.361,0,0,1-3.922.887H619.293V1.2Zm11.673,10.879a3.585,3.585,0,0,0,2.568-.887,3.455,3.455,0,0,0,.98-2.661,3.537,3.537,0,0,0-.934-2.8,4.448,4.448,0,0,0-2.8-.747h-6.723v7.144h6.91Zm.28,11.486a4.793,4.793,0,0,0,3.035-.84,3.537,3.537,0,0,0,1.074-2.895,3.781,3.781,0,0,0-1.121-3.035,5.05,5.05,0,0,0-3.268-.934h-7v7.7Z" transform="translate(-330.094 -0.64)"></path><path class="b" d="M693.4,1.2h4.762V23.378h12.56V27.3H693.447V1.2Z" transform="translate(-369.65 -0.64)"></path><path class="b" d="M757.3,1.2h17.649V5.122H762.016v7.19h9.618v3.922h-9.618v7.19h12.933v3.922H757.3V1.2Z" transform="translate(-403.715 -0.64)"></path></g></svg> 