<?xml version="1.0" encoding="UTF-8"?> <svg xmlns="http://www.w3.org/2000/svg" width="308.732" height="88.148" viewBox="0 0 308.732 88.148"><g transform="translate(-124.19)"><rect width="1.175" height="88.148" transform="translate(274.901 0)" fill="#1c2226"></rect><path d="M508.348,41.713v12.6h7.5V53.109h-6.145v-11.4Zm-10.99,1.175h.263l2.5,7.264h-5.289ZM492.05,54.316h1.457l1.032-2.957h5.952l1.031,2.957h1.469L498.5,41.694h-1.982Zm-6.721,0h1.35v-12.6h-1.35ZM470.588,48c0,4.007,1.75,6.533,5.627,6.533a11.753,11.753,0,0,0,3.2-.475V52.8a9.946,9.946,0,0,1-3.126.525c-2.394,0-4.32-1.413-4.32-5.351s1.782-5.251,4.426-5.251a12.04,12.04,0,0,1,3.013.469v-1.25a13.929,13.929,0,0,0-3.195-.444C472.414,41.5,470.588,44.038,470.588,48Zm-7.577,6.32h1.525v-12.6h-1.35v10.54l-7.021-10.54h-1.5v12.6h1.344V43.882ZM443.669,42.888h.263l2.5,7.264h-5.289Zm-5.3,11.428h1.45l1.038-2.957h5.977l1.007,2.957h1.494l-4.5-12.622h-2Zm-6.877,0h1.519v-12.6h-1.344v10.54l-7.039-10.54h-1.507v12.6h1.35V43.882Zm-16.348,0h1.344v-12.6h-1.344Zm-13.622-12.6v12.6h1.35V48.927h5.877V47.733H402.87V42.919h6.614V41.713Z" transform="translate(-103.953 -15.556)" fill="#1c2226"></path><path d="M527.666,81.988c0-3.851,2.5-5.283,5-5.283a13.754,13.754,0,0,1,3.307.45v-1.25a14.83,14.83,0,0,0-3.326-.406c-4.182,0-6.42,2.644-6.42,6.477,0,4.2,2.063,6.552,5.964,6.552a13.072,13.072,0,0,0,4.326-.775V82.163h-1.332v4.708a9.271,9.271,0,0,1-2.763.438C529.623,87.308,527.666,85.733,527.666,81.988Zm-8.977,6.32h1.557v-12.6H518.9v10.54l-7.052-10.54h-1.507v12.6h1.35V77.874Zm-16.348,0h1.344v-12.6h-1.344Zm-5.27-12.6H486.762v1.207h4.482v11.4h1.344v-11.4h4.482Zm-19.762,0v12.6h7.5V87.1h-6.145v-11.4Zm-6.564,8.615V75.705h-1.35v8.7c0,2.063-1.782,2.9-3.395,2.9s-3.395-.838-3.395-2.9v-8.7h-1.35v8.6c0,2.851,1.982,4.22,4.745,4.22S470.745,87.171,470.745,84.32Zm-19.893,2.988a18.129,18.129,0,0,1-3.357-.363V88.2a21.535,21.535,0,0,0,3.445.3c2.926,0,4.551-1.419,4.551-3.87,0-2.857-2.044-3.17-3.92-3.47-1.488-.244-2.838-.506-2.838-2.238s1.25-2.238,3.188-2.238a22.637,22.637,0,0,1,2.938.244v-1.25a28.811,28.811,0,0,0-2.919-.194c-2.332,0-4.608.625-4.608,3.47,0,2.626,1.838,3.126,3.607,3.413,1.594.263,3.126.506,3.126,2.257S452.978,87.308,450.852,87.308Zm-11.022,1h1.525v-12.6h-1.35v10.54l-7.021-10.54h-1.513v12.6h1.344V77.874Zm-25.382-6.32c0,4.026,1.644,6.533,5.514,6.533s5.445-2.5,5.445-6.533-1.575-6.5-5.445-6.5S414.449,77.981,414.449,81.988Zm9.578,0c0,3.751-1.557,5.339-4.095,5.339s-4.089-1.557-4.089-5.339,1.557-5.283,4.082-5.283S424.026,78.224,424.026,81.988Zm-23.456,0c0,4.007,1.75,6.533,5.627,6.533a11.828,11.828,0,0,0,3.207-.475V86.8a10,10,0,0,1-3.126.525c-2.394,0-4.32-1.413-4.32-5.351s1.782-5.251,4.426-5.251a12,12,0,0,1,3.013.469v-1.25a13.884,13.884,0,0,0-3.207-.406C402.389,75.493,400.57,78.031,400.57,81.988Z" transform="translate(-103.596 -28.292)" fill="#1c2226"></path><path d="M236.457,74.435H247.8V73.81l-3.176-.625V64.433c.575-4.207,2.182-8.29,4.451-8.29.869,0,1.157.625,1.157,1.363,0,1.113-.7,1.688-1.938,2.144a2.613,2.613,0,0,0,2.682,2.5,3.292,3.292,0,0,0,3.382-3.626,3.8,3.8,0,0,0-4.045-4.126c-3.588,0-5.114,3.338-5.689,5.733H244.5V54.549l-.25-.163-7.84,1.976v.625l2.151-.163V73.185l-2.107.625ZM227.849,55.33c1.607,0,2.057,1.819,2.057,4.789a16.109,16.109,0,0,1-.163,2.313h-6.27C223.748,58.719,224.986,55.33,227.849,55.33Zm7.59,11.14h-.625V66.6a5.019,5.019,0,0,1-5.283,5.364c-3.957,0-6.108-2.5-6.108-7.921v-.663h11.8a13.987,13.987,0,0,0,.125-1.769c0-4.745-3.182-7.221-7.677-7.221-6.352,0-10.684,3.713-10.684,10.515,0,5.945,3.588,10.109,10.065,10.109,5.57,0,8.458-3.626,8.458-7.715a3.051,3.051,0,0,0-.088-.825ZM216.114,73.4l-7.139-11.591,5.12-5.508,2.719-.575v-.581h-7.052v.531l3.007.575-8.29,9.065V45.265l-.25-.125-8.04,1.982v.625l2.182-.163v25.6l-2.1.625v.625h10.321V73.81l-2.107-.625V66.721l.538-.575,5,8.29h8.2V73.86Zm-43.905,1.032h10.315V73.81l-2.107-.625V62.47c.581-2.638,2.063-5.076,4.62-5.076,1.775,0,2.269.913,2.269,3.345V73.185l-2.1.625v.625h10.315V73.81l-2.107-.625V61.813c0-2.5-.038-7.427-5.283-7.427a8.257,8.257,0,0,0-7.633,5.526h-.244V54.549l-.206-.163-7.883,1.976v.569l2.151-.081V73.185l-2.107.625Zm-12.953-2.313c-1.738,0-2.188-1.357-2.188-3.126,0-2.719,1.569-3.5,3.051-4.207a6.158,6.158,0,0,0,1.732-.944v6.508a3.035,3.035,0,0,1-2.588,1.769Zm11.384-3.507v.706c0,1.813-.413,3.42-1.569,3.42-.988,0-1.113-1.15-1.113-2.845V61.688c0-5-3.013-7.3-8.046-7.3-4.539,0-8.5,2.5-8.5,5.689,0,1.775.988,3.126,2.682,3.126a3.006,3.006,0,0,0,3.176-2.594,2.319,2.319,0,0,1-1.944-2.426c0-1.569,1.194-2.644,3.051-2.644,2.394,0,3.463,1.407,3.463,5.739v.95c0,.988-1.607,1.813-3.626,2.307-4.126,1.032-7.471,2.432-7.471,6.064,0,2.851,2.144,4.414,5.114,4.414a7.033,7.033,0,0,0,6.152-3.67h.194c.25,2.019,1.732,3.67,4.539,3.67,4.539,0,4.62-3.832,4.62-5.626v-.769ZM136.106,73.36h-2.032V60.232h2.763c1.069,0,5.526,0,5.526,6.252s-4.6,6.877-6.252,6.877Zm.744-25.125c2.5,0,4.164,1.532,4.164,5.076,0,4.582-2.763,5.777-4.451,5.777h-2.5V48.235Zm5,11.253c3.588-.781,5.82-2.807,5.82-5.858,0-6.439-7.139-6.439-9.9-6.439H124.19V47.9l3.588.781h.044V72.935h-.044l-3.588.744v.756h11.922c5.626,0,12.872-1.075,12.872-7.965,0-4.576-2.844-6.414-7.139-6.971Z" transform="translate(0 -16.92)" fill="#1c2226"></path></g></svg> 