<?xml version="1.0" encoding="UTF-8"?> <svg xmlns="http://www.w3.org/2000/svg" xmlns:xlink="http://www.w3.org/1999/xlink" id="eqycmtyd5mn1" viewBox="0 0 161.200000 53.800000" shape-rendering="geometricPrecision" text-rendering="geometricPrecision"><style><![CDATA[#eqycmtyd5mn1{pointer-events: all}#eqycmtyd5mn1:hover #eqycmtyd5mn13_tr {animation: eqycmtyd5mn13_tr__tr 5000ms linear 1 normal forwards}@keyframes eqycmtyd5mn13_tr__tr { 0% {transform: translate(8.800000px,35.500000px) rotate(0deg)} 4% {transform: translate(8.800000px,35.500000px) rotate(-10deg)} 10% {transform: translate(8.800000px,35.500000px) rotate(0deg)} 100% {transform: translate(8.800000px,35.500000px) rotate(0deg)} }#eqycmtyd5mn1:hover #eqycmtyd5mn15_to {animation: eqycmtyd5mn15_to__to 5000ms linear 1 normal forwards}@keyframes eqycmtyd5mn15_to__to { 0% {transform: translate(0px,0px)} 4% {transform: translate(-0px,-2.400000px)} 10% {transform: translate(0px,0px)} 100% {transform: translate(0px,0px)} }#eqycmtyd5mn1:hover #eqycmtyd5mn16_tr {animation: eqycmtyd5mn16_tr__tr 5000ms linear 1 normal forwards}@keyframes eqycmtyd5mn16_tr__tr { 0% {transform: translate(51.600000px,35.499998px) rotate(0deg)} 8% {transform: translate(51.600000px,35.499998px) rotate(0deg)} 12% {transform: translate(51.600000px,35.499998px) rotate(10deg)} 18% {transform: translate(51.600000px,35.499998px) rotate(0deg)} 100% {transform: translate(51.600000px,35.499998px) rotate(0deg)} }#eqycmtyd5mn1:hover #eqycmtyd5mn18_to {animation: eqycmtyd5mn18_to__to 5000ms linear 1 normal forwards}@keyframes eqycmtyd5mn18_to__to { 0% {transform: translate(0px,0px)} 8% {transform: translate(0px,0px)} 12% {transform: translate(-0.050000px,-2.350000px)} 18% {transform: translate(0px,0px)} 100% {transform: translate(0px,0px)} }]]></style><path id="eqycmtyd5mn2" d="M59.700000,1.200000C59,0.400000,57.900000,0,56.800000,0L4.100000,0C1.900000,0,0,1.900000,0,4.100000L0,4.100000L0,40.300000C0,42.600000,1.900000,44.400000,4.100000,44.400000L4.100000,44.400000L11.200000,44.400000L24.300000,53.400000C24.500000,53.600000,24.800000,53.600000,25,53.600000C25.200000,53.600000,25.400000,53.600000,25.600000,53.500000C25.800000,53.400000,26.100000,53.200000,26.200000,53C26.300000,52.800000,26.400000,52.500000,26.400000,52.200000C26.400000,52,26.400000,51.800000,26.300000,51.600000L23.900000,45C23.900000,44.900000,23.900000,44.900000,23.900000,44.800000C23.900000,44.700000,23.900000,44.600000,24,44.500000C24,44.500000,24,44.500000,24.100000,44.400000C24.100000,44.400000,24.100000,44.400000,24.200000,44.400000L55.400000,44.400000C55.600000,44.400000,55.800000,44.400000,56,44.400000L56.900000,44.400000C59.200000,44.400000,61,42.500000,61,40.300000L61,40.300000L61,4.100000C61,3,60.500000,2,59.700000,1.200000ZM59.600000,6.300000L59.600000,40.400000C59.600000,41.900000,58.400000,43.200000,56.800000,43.200000L55.900000,43.200000L55.900000,43.200000C55.700000,43.200000,55.600000,43.200000,55.400000,43.200000L24.100000,43.200000C23.900000,43.200000,23.600000,43.300000,23.400000,43.400000C23.100000,43.500000,22.900000,43.800000,22.700000,44.100000C22.500000,44.400000,22.500000,44.700000,22.500000,45C22.500000,45.200000,22.500000,45.400000,22.600000,45.700000L25,52.300000L25,52.400000L25,52.500000L11.600000,43.300000L4.100000,43.300000C2.600000,43.300000,1.300000,42.100000,1.300000,40.500000L1.300000,4.100000C1.300000,2.600000,2.500000,1.300000,4.100000,1.300000L56.800000,1.300000C58.300000,1.300000,59.600000,2.500000,59.600000,4.100000L59.600000,6.300000Z" fill="rgb(246,220,59)" stroke="none" stroke-width="1"></path><g id="eqycmtyd5mn3" transform="matrix(1 0 0 1 90.46599999999999 203.94499999999999)"><path id="eqycmtyd5mn4" d="M-7.200000,-198L-9.900000,-198C-10.400000,-198,-10.800000,-197.600000,-10.800000,-197.100000L-10.800000,-183.500000C-12.200000,-184.100000,-13.700000,-184.500000,-15.200000,-184.500000C-20.300000,-184.500000,-24.300000,-180.200000,-24.300000,-174.800000C-24.300000,-169.500000,-20.500000,-165.100000,-15.600000,-165.100000C-13.400000,-165.100000,-11.300000,-166.100000,-9.700000,-167.700000L-9.300000,-166.400000C-9.200000,-165.900000,-8.900000,-165.600000,-8.500000,-165.600000L-7.100000,-165.600000C-6.600000,-165.600000,-6.200000,-166,-6.200000,-166.500000L-6.200000,-197.100000C-6.300000,-197.500000,-6.700000,-197.900000,-7.200000,-198ZM-10.700000,-171.800000C-11.500000,-170.100000,-13.200000,-169,-15.100000,-169C-18.100000,-169,-20,-171.600000,-20,-174.700000C-20.200000,-177.700000,-17.900000,-180.200000,-14.900000,-180.400000C-14.800000,-180.400000,-14.700000,-180.400000,-14.700000,-180.400000C-13.300000,-180.400000,-11.900000,-180,-10.700000,-179.300000L-10.700000,-171.800000Z" fill="rgb(255,255,255)" stroke="none" stroke-width="1"></path><path id="eqycmtyd5mn5" d="M0.100000,-184.100000L0.100000,-184.100000C1.300000,-184.100000,2.300000,-183.100000,2.300000,-181.900000L2.300000,-181.900000L2.300000,-167.800000C2.300000,-166.600000,1.300000,-165.600000,0.100000,-165.600000L0.100000,-165.600000L0.100000,-165.600000C-1.100000,-165.600000,-2.100000,-166.600000,-2.100000,-167.800000L-2.100000,-167.800000L-2.100000,-181.900000C-2.100000,-183.100000,-1.200000,-184.100000,0.100000,-184.100000L0.100000,-184.100000Z" fill="rgb(255,255,255)" stroke="none" stroke-width="1"></path><path id="eqycmtyd5mn6" d="M0,-197C-1.500000,-197,-2.700000,-195.700000,-2.700000,-194.200000C-2.700000,-192.700000,-1.500000,-191.600000,0,-191.500000C1.500000,-191.500000,2.700000,-192.700000,2.700000,-194.200000C2.700000,-195.700000,1.500000,-197,0,-197Z" fill="rgb(255,255,255)" stroke="none" stroke-width="1"></path><path id="eqycmtyd5mn7" d="M17,-165.100000L10.700000,-165.100000C9.600000,-165,8.600000,-165.700000,8.500000,-166.800000C8.500000,-166.900000,8.500000,-166.900000,8.500000,-167C8.600000,-168.100000,9.300000,-169,10.400000,-169.300000C11.700000,-168.900000,13.100000,-168.600000,14.400000,-168.600000C18.600000,-168.400000,22.100000,-171.700000,22.300000,-175.900000C22.300000,-176,22.300000,-176.100000,22.300000,-176.200000C22.400000,-178.100000,21.700000,-179.900000,20.300000,-181.200000L22.800000,-181.900000C23.100000,-181.900000,23.300000,-182.400000,23.300000,-182.700000L23.300000,-183.900000C23.300000,-184.400000,22.900000,-184.800000,22.500000,-184.800000C22.500000,-184.800000,22.500000,-184.800000,22.400000,-184.800000L14.300000,-184.800000C9.900000,-184.800000,6.400000,-181.300000,6.300000,-176.900000C6.300000,-176.800000,6.300000,-176.800000,6.300000,-176.700000C6.300000,-175.100000,6.800000,-173.500000,7.700000,-172.200000C5.800000,-171.100000,4.500000,-169.100000,4.400000,-166.900000C4.400000,-164.800000,5.800000,-162.900000,7.800000,-162.300000L7.800000,-162.200000C6.200000,-161.300000,5.100000,-159.700000,5.100000,-157.800000C5.100000,-154.800000,7.700000,-151.500000,14.300000,-151.500000C20.500000,-151.500000,24.200000,-155.100000,24.200000,-159.200000C24.300000,-162.900000,21.100000,-165.100000,17,-165.100000ZM14.500000,-180.600000C16.800000,-180.600000,18.400000,-178.800000,18.400000,-176.300000C18.400000,-173.800000,16.800000,-172,14.500000,-172C12.100000,-172.100000,10.300000,-174.100000,10.400000,-176.400000C10.500000,-178.700000,12.300000,-180.500000,14.500000,-180.600000L14.500000,-180.600000ZM14.400000,-155C11.600000,-155,9.600000,-156.400000,9.600000,-158.300000C9.600000,-160.400000,11.900000,-161.100000,12.100000,-161.200000C13.400000,-161.300000,14.800000,-161.300000,16.200000,-161.300000C19.200000,-161.300000,19.700000,-159.400000,19.700000,-158.700000C19.700000,-156.400000,17.200000,-155,14.400000,-155L14.400000,-155Z" fill="rgb(255,255,255)" stroke="none" stroke-width="1"></path><path id="eqycmtyd5mn8" d="M28.100000,-184.100000L28.100000,-184.100000C29.300000,-184.100000,30.300000,-183.100000,30.300000,-181.900000L30.300000,-181.900000L30.300000,-167.800000C30.300000,-166.600000,29.300000,-165.600000,28.100000,-165.600000L28.100000,-165.600000L28.100000,-165.600000C26.900000,-165.600000,25.900000,-166.600000,25.900000,-167.800000L25.900000,-167.800000L25.900000,-181.900000C25.900000,-183.100000,26.900000,-184.100000,28.100000,-184.100000L28.100000,-184.100000Z" fill="rgb(255,255,255)" stroke="none" stroke-width="1"></path><path id="eqycmtyd5mn9" d="M28,-197C26.500000,-197,25.300000,-195.700000,25.300000,-194.200000C25.300000,-192.700000,26.500000,-191.600000,28,-191.500000C29.500000,-191.500000,30.700000,-192.700000,30.700000,-194.200000C30.700000,-195.700000,29.500000,-197,28,-197Z" fill="rgb(255,255,255)" stroke="none" stroke-width="1"></path><path id="eqycmtyd5mn10" d="M45.400000,-169.600000C45.300000,-170,44.900000,-170.200000,44.600000,-170.100000C44.500000,-170.100000,44.400000,-170,44.400000,-170C43.500000,-169.500000,42.600000,-169.300000,41.600000,-169.200000C40.700000,-169.200000,40.100000,-169.500000,40.100000,-171.100000L40.100000,-180.300000L44.800000,-180.300000C45.300000,-180.300000,45.700000,-180.700000,45.700000,-181.200000L45.700000,-181.200000L45.700000,-183.300000C45.700000,-183.800000,45.300000,-184.200000,44.900000,-184.200000C44.900000,-184.200000,44.900000,-184.200000,44.800000,-184.200000L40,-184.200000L40,-189.400000C40,-189.900000,39.600000,-190.300000,39.200000,-190.300000L36.600000,-190.300000C36.100000,-190.300000,35.700000,-189.900000,35.700000,-189.400000L35.700000,-184.300000L33.800000,-184.300000C33.300000,-184.300000,32.900000,-183.900000,32.900000,-183.500000C32.900000,-183.500000,32.900000,-183.500000,32.900000,-183.400000L32.900000,-181.300000C32.900000,-180.800000,33.300000,-180.400000,33.800000,-180.400000L33.800000,-180.400000L35.700000,-180.400000L35.700000,-170.800000C35.700000,-167.500000,36.800000,-165.300000,40.400000,-165.300000C42.300000,-165.400000,44.100000,-165.900000,45.800000,-166.700000C46.200000,-166.800000,46.400000,-167.300000,46.300000,-167.700000C46.300000,-167.700000,46.300000,-167.800000,46.200000,-167.800000L45.400000,-169.600000Z" fill="rgb(255,255,255)" stroke="none" stroke-width="1"></path><path id="eqycmtyd5mn11" d="M55.900000,-184.500000C53.700000,-184.500000,51.600000,-184.200000,49.500000,-183.400000C49.100000,-183.300000,48.800000,-182.800000,48.900000,-182.400000C48.900000,-182.400000,48.900000,-182.400000,48.900000,-182.300000L49.300000,-180.600000C49.400000,-180.100000,49.800000,-179.700000,50.300000,-179.900000C52,-180.400000,53.700000,-180.700000,55.500000,-180.700000C57.900000,-180.700000,58.400000,-179.500000,58.400000,-176.600000C57.200000,-177,56,-177.100000,54.700000,-177.200000C50,-177.200000,47.300000,-174.600000,47.300000,-171.200000C47.300000,-167.400000,49.800000,-165,53.300000,-165C55.400000,-165,57.500000,-165.800000,59,-167.400000L59.500000,-166.100000C59.700000,-165.600000,59.900000,-165.500000,60.300000,-165.500000L61.600000,-165.500000C62.100000,-165.500000,62.500000,-165.900000,62.500000,-166.400000L62.500000,-176.300000C62.400000,-180.900000,61.800000,-184.500000,55.900000,-184.500000ZM58.300000,-170.700000C57.300000,-169.300000,55.800000,-168.500000,54.100000,-168.400000C52.600000,-168.400000,51.300000,-169.600000,51.300000,-171.100000C51.300000,-171.200000,51.300000,-171.200000,51.300000,-171.300000C51.300000,-173.200000,52.800000,-174.400000,55.100000,-174.400000C56.200000,-174.400000,57.300000,-174.200000,58.300000,-173.700000L58.300000,-170.700000Z" fill="rgb(255,255,255)" stroke="none" stroke-width="1"></path><path id="eqycmtyd5mn12" d="M68.500000,-198L68.500000,-198C69.700000,-198,70.700000,-197,70.700000,-195.800000L70.700000,-195.800000L70.700000,-167.800000C70.700000,-166.600000,69.700000,-165.600000,68.500000,-165.600000L68.500000,-165.600000C67.300000,-165.600000,66.300000,-166.600000,66.300000,-167.800000L66.300000,-167.800000L66.300000,-195.800000C66.300000,-197,67.300000,-198,68.500000,-198L68.500000,-198Z" fill="rgb(255,255,255)" stroke="none" stroke-width="1"></path></g><g id="eqycmtyd5mn13_tr" transform="translate(8.800000,35.500000) rotate(0)"><g id="eqycmtyd5mn13" transform="translate(-8.800000,-35.500000)"><path id="eqycmtyd5mn14" d="M15.400000,26.700000C15.400000,25.300000,16.500000,24.200000,17.800000,24.100000L25.500000,24.100000L25.500000,24.100000C25.500000,24.100000,25.600000,24.100000,25.600000,24.100000C26.500000,24.100000,27.300000,23.800000,27.900000,23.200000C28.500000,22.600000,28.800000,21.800000,28.800000,20.800000L28.800000,20.800000L28.800000,12C28.800000,11,28.500000,10.200000,27.800000,9.600000C27.300000,9.100000,26.600000,8.800000,25.900000,8.700000C25.700000,8.700000,25.600000,8.700000,25.400000,8.700000L12.100000,8.700000L12.100000,8.700000C11.100000,8.700000,10.300000,9,9.700000,9.600000C9.100000,10.200000,8.800000,11,8.800000,12L8.800000,12C8.800000,12,8.800000,22.800000,8.800000,28.800000L15.500000,28.800000C15.400000,28.800000,15.400000,26.700000,15.400000,26.700000ZM17.200000,15.300000L20.400000,15.300000C21.600000,15.300000,22.200000,15.900000,22.200000,17C22.200000,18.100000,21.600000,18.700000,20.400000,18.700000L17.100000,18.700000C16,18.700000,15.400000,18.100000,15.400000,17C15.500000,15.900000,16,15.300000,17.200000,15.300000Z" fill="rgb(246,220,59)" stroke="none" stroke-width="1"></path><g id="eqycmtyd5mn15_to" transform="translate(0,0)"><path id="eqycmtyd5mn15" d="M9.100000,33.700000C9.300000,34,9.400000,34.300000,9.700000,34.600000C10.300000,35.200000,11.100000,35.500000,12.100000,35.500000L12.100000,35.500000L25.500000,35.500000L25.500000,35.500000C25.700000,35.500000,25.900000,35.500000,26,35.500000C26.700000,35.400000,27.400000,35.100000,27.900000,34.600000C28.200000,34.300000,28.300000,34.100000,28.500000,33.800000C28.700000,33.400000,28.800000,33,28.800000,32.500000C28.700000,31.600000,28.400000,30.900000,27.900000,30.300000C27.400000,29.800000,26.700000,29.500000,26,29.400000C25.900000,29.400000,25.600000,29.400000,25.500000,29.400000L25.500000,29.400000L17.800000,29.400000C16.500000,29.300000,15.400000,28.300000,15.400000,26.900000L8.800000,26.900000C8.800000,30.100000,8.800000,32.500000,8.800000,32.500000C8.800000,32.900000,8.900000,33.300000,9.100000,33.700000Z" transform="translate(0,0)" fill="rgb(246,220,59)" stroke="none" stroke-width="1"></path></g></g></g><g id="eqycmtyd5mn16_tr" transform="translate(51.600000,35.499998) rotate(0)"><g id="eqycmtyd5mn16" transform="translate(-52.100000,-35.400000)"><path id="eqycmtyd5mn17" d="M52.100000,12L52.100000,12C52.100000,11,51.800000,10.200000,51.200000,9.500000C50.600000,8.900000,49.800000,8.600000,48.800000,8.600000L48.800000,8.600000L35.400000,8.600000C35.200000,8.600000,35,8.600000,34.900000,8.600000C34.100000,8.700000,33.500000,9,33,9.500000C32.400000,10.100000,32,10.900000,32,11.900000L32,20.700000L32,20.700000C32,21.700000,32.300000,22.500000,32.900000,23.100000C33.500000,23.700000,34.300000,24,35.200000,24C35.200000,24,35.300000,24,35.300000,24L35.300000,24L43,24C44.300000,24.100000,45.400000,25.200000,45.400000,26.600000C45.400000,26.600000,45.400000,28.700000,45.400000,28.700000L52.100000,28.700000C52.100000,22.800000,52.100000,12,52.100000,12ZM43.800000,18.700000L40.500000,18.700000C39.300000,18.700000,38.700000,18.100000,38.700000,17C38.700000,15.900000,39.300000,15.300000,40.500000,15.300000L43.700000,15.300000C44.900000,15.300000,45.400000,15.900000,45.400000,17C45.400000,18.100000,44.900000,18.700000,43.800000,18.700000Z" fill="rgb(246,220,59)" stroke="none" stroke-width="1"></path><g id="eqycmtyd5mn18_to" transform="translate(0,0)"><path id="eqycmtyd5mn18" d="M43.100000,29.300000L35.400000,29.300000L35.400000,29.300000C35.300000,29.300000,35,29.300000,34.900000,29.300000C34.200000,29.400000,33.500000,29.700000,33,30.200000C32.400000,30.800000,32.100000,31.500000,32.100000,32.400000C32.100000,32.900000,32.200000,33.300000,32.400000,33.700000C32.600000,34,32.700000,34.300000,33,34.500000C33.500000,35,34.200000,35.300000,34.900000,35.400000C35.100000,35.400000,35.200000,35.400000,35.400000,35.400000L35.400000,35.400000L48.800000,35.400000L48.800000,35.400000C49.800000,35.400000,50.600000,35.100000,51.200000,34.500000C51.500000,34.200000,51.700000,33.900000,51.800000,33.600000C52,33.200000,52.100000,32.800000,52.100000,32.300000C52.100000,32.300000,52.100000,29.900000,52.100000,26.700000L45.400000,26.700000C45.400000,28.200000,44.400000,29.200000,43.100000,29.300000Z" transform="translate(0,0)" fill="rgb(246,220,59)" stroke="none" stroke-width="1"></path></g></g></g></svg> 